{
  "accessors": [
    {
      "bufferView": 0,
      "componentType": 5126,
      "count": 786,
      "max": [
        26.018030166625977,
        45.485992431640625,
        19.082063674926758
      ],
      "min": [
        -26.018030166625977,
        25.372962951660156,
        -18.481462478637695
      ],
      "type": "VEC3"
    },
    {
      "bufferView": 1,
      "componentType": 5126,
      "count": 786,
      "max": [
        1.0,
        1.0,
        0.9999922513961792
      ],
      "min": [
        -1.0,
        -1.0,
        -0.9999922513961792
      ],
      "type": "VEC3"
    },
    {
      "bufferView": 2,
      "componentType": 5126,
      "count": 786,
      "max": [
        0.6870343685150146,
        1.0,
        1.0,
        1.0
      ],
      "min": [
        -1.0,
        -1.0,
        -1.0,
        1.0
      ],
      "type": "VEC4"
    },
    {
      "bufferView": 3,
      "componentType": 5126,
      "count": 786,
      "max": [
        0.9916372895240784,
        0.9917685985565186
      ],
      "min": [
        0.011900991201400757,
        0.08217459917068481
      ],
      "type": "VEC2"
    },
    {
      "bufferView": 4,
      "componentType": 5125,
      "count": 2196,
      "max": [
        785
      ],
      "min": [
        0
      ],
      "type": "SCALAR"
    }
  ],
  "asset": {
    "version": "2.0"
  },
  "bufferViews": [
    {
      "buffer": 0,
      "byteLength": 9432,
      "target": 34962
    },
    {
      "buffer": 0,
      "byteLength": 9432,
      "byteOffset": 9432,
      "target": 34962
    },
    {
      "buffer": 0,
      "byteLength": 12576,
      "byteOffset": 18864,
      "target": 34962
    },
    {
      "buffer": 0,
      "byteLength": 6288,
      "byteOffset": 31440,
      "target": 34962
    },
    {
      "buffer": 0,
      "byteLength": 8784,
      "byteOffset": 37728,
      "target": 34963
    }
  ],
  "buffers": [
    {
      "byteLength": 46512,
      "uri": "treature_box_up.bin"
    }
  ],
  "images": [
    {
      "uri": "BaseColor.png"
    },
    {
      "uri": "Metalness.png"
    }
  ],
  "materials": [
    {
      "emissiveFactor": [
        1.0,
        1.0,
        1.0
      ],
      "name": "m_treasure_box",
      "pbrMetallicRoughness": {
        "baseColorTexture": {
          "index": 0
        },
        "metallicFactor": 0.0,
        "metallicRoughnessTexture": {
          "index": 1
        }
      }
    }
  ],
  "meshes": [
    {
      "primitives": [
        {
          "attributes": {
            "NORMAL": 1,
            "POSITION": 0,
            "TANGENT": 2,
            "TEXCOORD_0": 3
          },
          "indices": 4,
          "material": 0,
          "mode": 4
        }
      ]
    }
  ],
  "nodes": [
    {
      "mesh": 0,
      "name": "treature_box_up",
      "rotation": [
        0.0,
        0.0,
        0.0,
        1.0
      ],
      "scale": [
        1.0,
        1.0,
        1.0
      ],
      "translation": [
        0.0,
        -25.372966766357422,
        -19.082063674926758
      ]
    }
  ],
  "samplers": [
    {
      "wrapS": 10497,
      "wrapT": 10497
    }
  ],
  "scenes": [
    {
      "nodes": [
        0
      ]
    }
  ],
  "textures": [
    {
      "sampler": 0,
      "source": 0
    },
    {
      "sampler": 0,
      "source": 1
    }
  ]
}
