{
  "accessors": [
    {
      "bufferView": 0,
      "componentType": 5126,
      "count": 694,
      "max": [
        0.2530938684940338,
        0.08133573830127716,
        0.254349023103714
      ],
      "min": [
        -0.2530938684940338,
        -0.2095056027173996,
        -0.2543490529060364
      ],
      "type": "VEC3"
    },
    {
      "bufferView": 1,
      "componentType": 5126,
      "count": 694,
      "max": [
        0.8983914256095886,
        0.9997928738594055,
        0.8976633548736572
      ],
      "min": [
        -0.8983914256095886,
        0.43918269872665405,
        -0.8976633548736572
      ],
      "type": "VEC3"
    },
    {
      "bufferView": 2,
      "componentType": 5126,
      "count": 694,
      "max": [
        1.0,
        0.2804328501224518,
        1.0,
        1.0
      ],
      "min": [
        -1.0,
        -0.275375097990036,
        -1.0,
        -1.0
      ],
      "type": "VEC4"
    },
    {
      "bufferView": 3,
      "componentType": 5126,
      "count": 694,
      "max": [
        1.0000001192092896,
        1.0
      ],
      "min": [
        0.0,
        0.0
      ],
      "type": "VEC2"
    },
    {
      "bufferView": 4,
      "componentType": 5125,
      "count": 3240,
      "max": [
        693
      ],
      "min": [
        0
      ],
      "type": "SCALAR"
    }
  ],
  "asset": {
    "version": "2.0"
  },
  "bufferViews": [
    {
      "buffer": 0,
      "byteLength": 8328,
      "target": 34962
    },
    {
      "buffer": 0,
      "byteLength": 8328,
      "byteOffset": 8328,
      "target": 34962
    },
    {
      "buffer": 0,
      "byteLength": 11104,
      "byteOffset": 16656,
      "target": 34962
    },
    {
      "buffer": 0,
      "byteLength": 5552,
      "byteOffset": 27760,
      "target": 34962
    },
    {
      "buffer": 0,
      "byteLength": 12960,
      "byteOffset": 33312,
      "target": 34963
    }
  ],
  "buffers": [
    {
      "byteLength": 46272,
      "uri": "island2.bin"
    }
  ],
  "images": [
    {
      "uri": "m_island_baseColor.png"
    }
  ],
  "materials": [
    {
      "emissiveFactor": [
        1.0,
        1.0,
        1.0
      ],
      "name": "m_island.003",
      "pbrMetallicRoughness": {
        "baseColorFactor": [
          0.9382239580154419,
          0.9371887445449829,
          0.7643446326255798,
          1.0
        ],
        "baseColorTexture": {
          "index": 0
        },
        "metallicFactor": 0.0
      }
    }
  ],
  "meshes": [
    {
      "primitives": [
        {
          "attributes": {
            "NORMAL": 1,
            "POSITION": 0,
            "TANGENT": 2,
            "TEXCOORD_0": 3
          },
          "indices": 4,
          "material": 0,
          "mode": 4
        }
      ]
    }
  ],
  "nodes": [
    {
      "name": "island",
      "rotation": [
        0.0,
        0.0,
        0.0,
        1.0
      ],
      "scale": [
        1238.891845703125,
        155.43724060058594,
        1238.891845703125
      ],
      "translation": [
        0.0,
        -12.827715873718262,
        0.0
      ]
    },
    {
      "mesh": 0,
      "name": "island.002",
      "rotation": [
        0.0,
        0.0,
        0.0,
        1.0
      ],
      "scale": [
        1.0,
        1.0,
        1.0
      ],
      "translation": [
        0.0,
        0.0,
        0.0
      ]
    },
    {
      "children": [
        1
      ],
      "name": "island.001",
      "rotation": [
        0.0,
        0.0,
        0.0,
        1.0
      ],
      "scale": [
        1238.891845703125,
        155.43724060058594,
        1238.891845703125
      ],
      "translation": [
        0.0,
        -12.827715873718262,
        0.0
      ]
    },
    {
      "name": "stage",
      "rotation": [
        0.0,
        0.0,
        0.0,
        1.0
      ],
      "scale": [
        1.0,
        1.0,
        1.0
      ],
      "translation": [
        0.0,
        0.0,
        0.0
      ]
    }
  ],
  "samplers": [
    {
      "wrapS": 10497,
      "wrapT": 10497
    }
  ],
  "scenes": [
    {
      "nodes": [
        0,
        2,
        3
      ]
    }
  ],
  "textures": [
    {
      "sampler": 0,
      "source": 0
    }
  ]
}
