{
  "accessors": [
    {
      "bufferView": 0,
      "componentType": 5126,
      "count": 176,
      "max": [
        0.009999999776482582,
        0.015890218317508698,
        0.009510565549135208
      ],
      "min": [
        -0.008090171962976456,
        -0.015890218317508698,
        -0.009510567411780357
      ],
      "type": "VEC3"
    },
    {
      "bufferView": 1,
      "componentType": 5126,
      "count": 176,
      "max": [
        0.9880442023277283,
        0.7121397852897644,
        0.9949634671211243
      ],
      "min": [
        -0.940929651260376,
        -0.7121397256851196,
        -0.9949634671211243
      ],
      "type": "VEC3"
    },
    {
      "bufferView": 2,
      "componentType": 5126,
      "count": 176,
      "max": [
        0.9949634671211243,
        0.7020377516746521,
        0.9412159323692322,
        1.0
      ],
      "min": [
        -0.9949634671211243,
        -0.7020378112792969,
        -0.9882712364196777,
        1.0
      ],
      "type": "VEC4"
    },
    {
      "bufferView": 3,
      "componentType": 5126,
      "count": 176,
      "max": [
        0.6473730206489563,
        0.9845848679542542
      ],
      "min": [
        0.3516145348548889,
        0.01541513204574585
      ],
      "type": "VEC2"
    },
    {
      "bufferView": 4,
      "componentType": 5125,
      "count": 240,
      "max": [
        175
      ],
      "min": [
        0
      ],
      "type": "SCALAR"
    }
  ],
  "asset": {
    "version": "2.0"
  },
  "bufferViews": [
    {
      "buffer": 0,
      "byteLength": 2112,
      "target": 34962
    },
    {
      "buffer": 0,
      "byteLength": 2112,
      "byteOffset": 2112,
      "target": 34962
    },
    {
      "buffer": 0,
      "byteLength": 2816,
      "byteOffset": 4224,
      "target": 34962
    },
    {
      "buffer": 0,
      "byteLength": 1408,
      "byteOffset": 7040,
      "target": 34962
    },
    {
      "buffer": 0,
      "byteLength": 960,
      "byteOffset": 8448,
      "target": 34963
    }
  ],
  "buffers": [
    {
      "byteLength": 9408,
      "uri": "star.bin"
    }
  ],
  "materials": [
    {
      "emissiveFactor": [
        1.0,
        1.0,
        1.0
      ],
      "name": "standardSurface2",
      "pbrMetallicRoughness": {
        "baseColorFactor": [
          1.0,
          1.0,
          0.0,
          1.0
        ],
        "metallicFactor": 0.0
      }
    }
  ],
  "meshes": [
    {
      "primitives": [
        {
          "attributes": {
            "NORMAL": 1,
            "POSITION": 0,
            "TANGENT": 2,
            "TEXCOORD_0": 3
          },
          "indices": 4,
          "material": 0,
          "mode": 4
        }
      ]
    }
  ],
  "nodes": [
    {
      "mesh": 0,
      "name": "Star",
      "rotation": [
        0.5,
        0.5,
        0.5,
        0.5
      ],
      "scale": [
        20.0,
        2.0,
        20.0
      ],
      "translation": [
        0.0,
        0.0,
        0.0
      ]
    }
  ],
  "samplers": [
    {
      "wrapS": 10497,
      "wrapT": 10497
    }
  ],
  "scenes": [
    {
      "nodes": [
        0
      ]
    }
  ]
}
