{
	"asset":{
		"generator":"Khronos glTF Blender I/O v5.1.19",
		"version":"2.0"
	},
	"scene":0,
	"scenes":[
		{
			"name":"Scene",
			"nodes":[
				4,
				9,
				14
			]
		}
	],
	"nodes":[
		{
			"mesh":0,
			"name":"coin.001",
			"translation":[
				0,
				0,
				-0.015000104904174805
			]
		},
		{
			"mesh":1,
			"name":"coin.002",
			"translation":[
				0,
				0,
				-0.03000020980834961
			]
		},
		{
			"mesh":2,
			"name":"coin.003",
			"translation":[
				0,
				0,
				-0.04500019550323486
			]
		},
		{
			"mesh":3,
			"name":"coin.004",
			"translation":[
				0,
				0,
				-0.06000018119812012
			]
		},
		{
			"children":[
				0,
				1,
				2,
				3
			],
			"mesh":4,
			"name":"coin",
			"rotation":[
				0.70710688829422,
				0,
				0,
				0.7071066498756409
			],
			"scale":[
				0.800000011920929,
				0.8000001311302185,
				0.8000001311302185
			],
			"translation":[
				0,
				0.9599999785423279,
				0
			]
		},
		{
			"mesh":5,
			"name":"coin.006",
			"translation":[
				0,
				0,
				-0.015000104904174805
			]
		},
		{
			"mesh":6,
			"name":"coin.007",
			"translation":[
				0,
				0,
				-0.03000009059906006
			]
		},
		{
			"mesh":7,
			"name":"coin.008",
			"translation":[
				0,
				0,
				-0.04500019550323486
			]
		},
		{
			"mesh":8,
			"name":"coin.009",
			"translation":[
				0,
				0,
				-0.06000018119812012
			]
		},
		{
			"children":[
				5,
				6,
				7,
				8
			],
			"mesh":9,
			"name":"coin.005",
			"rotation":[
				0.70710688829422,
				0,
				0,
				0.7071066498756409
			],
			"scale":[
				0.800000011920929,
				0.8000001311302185,
				0.8000001311302185
			],
			"translation":[
				-0.03999999910593033,
				0.8999999761581421,
				0
			]
		},
		{
			"mesh":10,
			"name":"coin.011",
			"translation":[
				0,
				0,
				-0.015000104904174805
			]
		},
		{
			"mesh":11,
			"name":"coin.012",
			"translation":[
				0,
				0,
				-0.03000009059906006
			]
		},
		{
			"mesh":12,
			"name":"coin.013",
			"translation":[
				0,
				0,
				-0.04500019550323486
			]
		},
		{
			"mesh":13,
			"name":"coin.014",
			"translation":[
				0,
				0,
				-0.06000018119812012
			]
		},
		{
			"children":[
				10,
				11,
				12,
				13
			],
			"mesh":14,
			"name":"coin.010",
			"rotation":[
				0.70710688829422,
				0,
				0,
				0.7071066498756409
			],
			"scale":[
				0.800000011920929,
				0.8000001311302185,
				0.8000001311302185
			],
			"translation":[
				0.03999999910593033,
				0.8999999761581421,
				0
			]
		}
	],
	"materials":[
		{
			"doubleSided":true,
			"name":"coin",
			"pbrMetallicRoughness":{
				"baseColorFactor":[
					0.7674481868743896,
					0.44859081506729126,
					0.007226800080388784,
					1
				],
				"metallicFactor":0.5,
				"roughnessFactor":0.20000000298023224
			}
		}
	],
	"meshes":[
		{
			"name":"coin.001",
			"primitives":[
				{
					"attributes":{
						"POSITION":0,
						"NORMAL":1,
						"TEXCOORD_0":2
					},
					"indices":3,
					"material":0
				}
			]
		},
		{
			"name":"coin.002",
			"primitives":[
				{
					"attributes":{
						"POSITION":4,
						"NORMAL":5,
						"TEXCOORD_0":6
					},
					"indices":3,
					"material":0
				}
			]
		},
		{
			"name":"coin.003",
			"primitives":[
				{
					"attributes":{
						"POSITION":7,
						"NORMAL":8,
						"TEXCOORD_0":9
					},
					"indices":3,
					"material":0
				}
			]
		},
		{
			"name":"coin.004",
			"primitives":[
				{
					"attributes":{
						"POSITION":10,
						"NORMAL":11,
						"TEXCOORD_0":12
					},
					"indices":3,
					"material":0
				}
			]
		},
		{
			"name":"coin",
			"primitives":[
				{
					"attributes":{
						"POSITION":13,
						"NORMAL":14,
						"TEXCOORD_0":15
					},
					"indices":3,
					"material":0
				}
			]
		},
		{
			"name":"coin.006",
			"primitives":[
				{
					"attributes":{
						"POSITION":16,
						"NORMAL":17,
						"TEXCOORD_0":18
					},
					"indices":3,
					"material":0
				}
			]
		},
		{
			"name":"coin.007",
			"primitives":[
				{
					"attributes":{
						"POSITION":19,
						"NORMAL":20,
						"TEXCOORD_0":21
					},
					"indices":3,
					"material":0
				}
			]
		},
		{
			"name":"coin.008",
			"primitives":[
				{
					"attributes":{
						"POSITION":22,
						"NORMAL":23,
						"TEXCOORD_0":24
					},
					"indices":3,
					"material":0
				}
			]
		},
		{
			"name":"coin.009",
			"primitives":[
				{
					"attributes":{
						"POSITION":25,
						"NORMAL":26,
						"TEXCOORD_0":27
					},
					"indices":3,
					"material":0
				}
			]
		},
		{
			"name":"coin.005",
			"primitives":[
				{
					"attributes":{
						"POSITION":28,
						"NORMAL":29,
						"TEXCOORD_0":30
					},
					"indices":3,
					"material":0
				}
			]
		},
		{
			"name":"coin.011",
			"primitives":[
				{
					"attributes":{
						"POSITION":31,
						"NORMAL":32,
						"TEXCOORD_0":33
					},
					"indices":3,
					"material":0
				}
			]
		},
		{
			"name":"coin.012",
			"primitives":[
				{
					"attributes":{
						"POSITION":34,
						"NORMAL":35,
						"TEXCOORD_0":36
					},
					"indices":3,
					"material":0
				}
			]
		},
		{
			"name":"coin.013",
			"primitives":[
				{
					"attributes":{
						"POSITION":37,
						"NORMAL":38,
						"TEXCOORD_0":39
					},
					"indices":3,
					"material":0
				}
			]
		},
		{
			"name":"coin.014",
			"primitives":[
				{
					"attributes":{
						"POSITION":40,
						"NORMAL":41,
						"TEXCOORD_0":42
					},
					"indices":3,
					"material":0
				}
			]
		},
		{
			"name":"coin.010",
			"primitives":[
				{
					"attributes":{
						"POSITION":43,
						"NORMAL":44,
						"TEXCOORD_0":45
					},
					"indices":3,
					"material":0
				}
			]
		}
	],
	"accessors":[
		{
			"bufferView":0,
			"componentType":5126,
			"count":651,
			"max":[
				0.04999999701976776,
				0.04879407584667206,
				1.1250028610229492
			],
			"min":[
				-0.04999999701976776,
				-0.051205817610025406,
				1.1100027561187744
			],
			"type":"VEC3"
		},
		{
			"bufferView":1,
			"componentType":5126,
			"count":651,
			"type":"VEC3"
		},
		{
			"bufferView":2,
			"componentType":5126,
			"count":651,
			"type":"VEC2"
		},
		{
			"bufferView":3,
			"componentType":5123,
			"count":1380,
			"type":"SCALAR"
		},
		{
			"bufferView":4,
			"componentType":5126,
			"count":651,
			"max":[
				0.04999999701976776,
				0.04879407584667206,
				1.1250028610229492
			],
			"min":[
				-0.04999999701976776,
				-0.051205817610025406,
				1.1100027561187744
			],
			"type":"VEC3"
		},
		{
			"bufferView":5,
			"componentType":5126,
			"count":651,
			"type":"VEC3"
		},
		{
			"bufferView":6,
			"componentType":5126,
			"count":651,
			"type":"VEC2"
		},
		{
			"bufferView":7,
			"componentType":5126,
			"count":651,
			"max":[
				0.04999999701976776,
				0.04879407584667206,
				1.1250028610229492
			],
			"min":[
				-0.04999999701976776,
				-0.051205817610025406,
				1.1100027561187744
			],
			"type":"VEC3"
		},
		{
			"bufferView":8,
			"componentType":5126,
			"count":651,
			"type":"VEC3"
		},
		{
			"bufferView":9,
			"componentType":5126,
			"count":651,
			"type":"VEC2"
		},
		{
			"bufferView":10,
			"componentType":5126,
			"count":651,
			"max":[
				0.04999999701976776,
				0.04879407584667206,
				1.1250028610229492
			],
			"min":[
				-0.04999999701976776,
				-0.051205817610025406,
				1.1100027561187744
			],
			"type":"VEC3"
		},
		{
			"bufferView":11,
			"componentType":5126,
			"count":651,
			"type":"VEC3"
		},
		{
			"bufferView":12,
			"componentType":5126,
			"count":651,
			"type":"VEC2"
		},
		{
			"bufferView":13,
			"componentType":5126,
			"count":651,
			"max":[
				0.04999999701976776,
				0.04879407584667206,
				1.1250028610229492
			],
			"min":[
				-0.04999999701976776,
				-0.051205817610025406,
				1.1100027561187744
			],
			"type":"VEC3"
		},
		{
			"bufferView":14,
			"componentType":5126,
			"count":651,
			"type":"VEC3"
		},
		{
			"bufferView":15,
			"componentType":5126,
			"count":651,
			"type":"VEC2"
		},
		{
			"bufferView":16,
			"componentType":5126,
			"count":651,
			"max":[
				0.04999999701976776,
				0.04879407584667206,
				1.1250028610229492
			],
			"min":[
				-0.04999999701976776,
				-0.051205817610025406,
				1.1100027561187744
			],
			"type":"VEC3"
		},
		{
			"bufferView":17,
			"componentType":5126,
			"count":651,
			"type":"VEC3"
		},
		{
			"bufferView":18,
			"componentType":5126,
			"count":651,
			"type":"VEC2"
		},
		{
			"bufferView":19,
			"componentType":5126,
			"count":651,
			"max":[
				0.04999999701976776,
				0.04879407584667206,
				1.1250028610229492
			],
			"min":[
				-0.04999999701976776,
				-0.051205817610025406,
				1.1100027561187744
			],
			"type":"VEC3"
		},
		{
			"bufferView":20,
			"componentType":5126,
			"count":651,
			"type":"VEC3"
		},
		{
			"bufferView":21,
			"componentType":5126,
			"count":651,
			"type":"VEC2"
		},
		{
			"bufferView":22,
			"componentType":5126,
			"count":651,
			"max":[
				0.04999999701976776,
				0.04879407584667206,
				1.1250028610229492
			],
			"min":[
				-0.04999999701976776,
				-0.051205817610025406,
				1.1100027561187744
			],
			"type":"VEC3"
		},
		{
			"bufferView":23,
			"componentType":5126,
			"count":651,
			"type":"VEC3"
		},
		{
			"bufferView":24,
			"componentType":5126,
			"count":651,
			"type":"VEC2"
		},
		{
			"bufferView":25,
			"componentType":5126,
			"count":651,
			"max":[
				0.04999999701976776,
				0.04879407584667206,
				1.1250028610229492
			],
			"min":[
				-0.04999999701976776,
				-0.051205817610025406,
				1.1100027561187744
			],
			"type":"VEC3"
		},
		{
			"bufferView":26,
			"componentType":5126,
			"count":651,
			"type":"VEC3"
		},
		{
			"bufferView":27,
			"componentType":5126,
			"count":651,
			"type":"VEC2"
		},
		{
			"bufferView":28,
			"componentType":5126,
			"count":651,
			"max":[
				0.04999999701976776,
				0.04879407584667206,
				1.1250028610229492
			],
			"min":[
				-0.04999999701976776,
				-0.051205817610025406,
				1.1100027561187744
			],
			"type":"VEC3"
		},
		{
			"bufferView":29,
			"componentType":5126,
			"count":651,
			"type":"VEC3"
		},
		{
			"bufferView":30,
			"componentType":5126,
			"count":651,
			"type":"VEC2"
		},
		{
			"bufferView":31,
			"componentType":5126,
			"count":651,
			"max":[
				0.04999999701976776,
				0.04879407584667206,
				1.1250028610229492
			],
			"min":[
				-0.04999999701976776,
				-0.051205817610025406,
				1.1100027561187744
			],
			"type":"VEC3"
		},
		{
			"bufferView":32,
			"componentType":5126,
			"count":651,
			"type":"VEC3"
		},
		{
			"bufferView":33,
			"componentType":5126,
			"count":651,
			"type":"VEC2"
		},
		{
			"bufferView":34,
			"componentType":5126,
			"count":651,
			"max":[
				0.04999999701976776,
				0.04879407584667206,
				1.1250028610229492
			],
			"min":[
				-0.04999999701976776,
				-0.051205817610025406,
				1.1100027561187744
			],
			"type":"VEC3"
		},
		{
			"bufferView":35,
			"componentType":5126,
			"count":651,
			"type":"VEC3"
		},
		{
			"bufferView":36,
			"componentType":5126,
			"count":651,
			"type":"VEC2"
		},
		{
			"bufferView":37,
			"componentType":5126,
			"count":651,
			"max":[
				0.04999999701976776,
				0.04879407584667206,
				1.1250028610229492
			],
			"min":[
				-0.04999999701976776,
				-0.051205817610025406,
				1.1100027561187744
			],
			"type":"VEC3"
		},
		{
			"bufferView":38,
			"componentType":5126,
			"count":651,
			"type":"VEC3"
		},
		{
			"bufferView":39,
			"componentType":5126,
			"count":651,
			"type":"VEC2"
		},
		{
			"bufferView":40,
			"componentType":5126,
			"count":651,
			"max":[
				0.04999999701976776,
				0.04879407584667206,
				1.1250028610229492
			],
			"min":[
				-0.04999999701976776,
				-0.051205817610025406,
				1.1100027561187744
			],
			"type":"VEC3"
		},
		{
			"bufferView":41,
			"componentType":5126,
			"count":651,
			"type":"VEC3"
		},
		{
			"bufferView":42,
			"componentType":5126,
			"count":651,
			"type":"VEC2"
		},
		{
			"bufferView":43,
			"componentType":5126,
			"count":651,
			"max":[
				0.04999999701976776,
				0.04879407584667206,
				1.1250028610229492
			],
			"min":[
				-0.04999999701976776,
				-0.051205817610025406,
				1.1100027561187744
			],
			"type":"VEC3"
		},
		{
			"bufferView":44,
			"componentType":5126,
			"count":651,
			"type":"VEC3"
		},
		{
			"bufferView":45,
			"componentType":5126,
			"count":651,
			"type":"VEC2"
		}
	],
	"bufferViews":[
		{
			"buffer":0,
			"byteLength":7812,
			"byteOffset":0,
			"target":34962
		},
		{
			"buffer":0,
			"byteLength":7812,
			"byteOffset":7812,
			"target":34962
		},
		{
			"buffer":0,
			"byteLength":5208,
			"byteOffset":15624,
			"target":34962
		},
		{
			"buffer":0,
			"byteLength":2760,
			"byteOffset":20832,
			"target":34963
		},
		{
			"buffer":0,
			"byteLength":7812,
			"byteOffset":23592,
			"target":34962
		},
		{
			"buffer":0,
			"byteLength":7812,
			"byteOffset":31404,
			"target":34962
		},
		{
			"buffer":0,
			"byteLength":5208,
			"byteOffset":39216,
			"target":34962
		},
		{
			"buffer":0,
			"byteLength":7812,
			"byteOffset":44424,
			"target":34962
		},
		{
			"buffer":0,
			"byteLength":7812,
			"byteOffset":52236,
			"target":34962
		},
		{
			"buffer":0,
			"byteLength":5208,
			"byteOffset":60048,
			"target":34962
		},
		{
			"buffer":0,
			"byteLength":7812,
			"byteOffset":65256,
			"target":34962
		},
		{
			"buffer":0,
			"byteLength":7812,
			"byteOffset":73068,
			"target":34962
		},
		{
			"buffer":0,
			"byteLength":5208,
			"byteOffset":80880,
			"target":34962
		},
		{
			"buffer":0,
			"byteLength":7812,
			"byteOffset":86088,
			"target":34962
		},
		{
			"buffer":0,
			"byteLength":7812,
			"byteOffset":93900,
			"target":34962
		},
		{
			"buffer":0,
			"byteLength":5208,
			"byteOffset":101712,
			"target":34962
		},
		{
			"buffer":0,
			"byteLength":7812,
			"byteOffset":106920,
			"target":34962
		},
		{
			"buffer":0,
			"byteLength":7812,
			"byteOffset":114732,
			"target":34962
		},
		{
			"buffer":0,
			"byteLength":5208,
			"byteOffset":122544,
			"target":34962
		},
		{
			"buffer":0,
			"byteLength":7812,
			"byteOffset":127752,
			"target":34962
		},
		{
			"buffer":0,
			"byteLength":7812,
			"byteOffset":135564,
			"target":34962
		},
		{
			"buffer":0,
			"byteLength":5208,
			"byteOffset":143376,
			"target":34962
		},
		{
			"buffer":0,
			"byteLength":7812,
			"byteOffset":148584,
			"target":34962
		},
		{
			"buffer":0,
			"byteLength":7812,
			"byteOffset":156396,
			"target":34962
		},
		{
			"buffer":0,
			"byteLength":5208,
			"byteOffset":164208,
			"target":34962
		},
		{
			"buffer":0,
			"byteLength":7812,
			"byteOffset":169416,
			"target":34962
		},
		{
			"buffer":0,
			"byteLength":7812,
			"byteOffset":177228,
			"target":34962
		},
		{
			"buffer":0,
			"byteLength":5208,
			"byteOffset":185040,
			"target":34962
		},
		{
			"buffer":0,
			"byteLength":7812,
			"byteOffset":190248,
			"target":34962
		},
		{
			"buffer":0,
			"byteLength":7812,
			"byteOffset":198060,
			"target":34962
		},
		{
			"buffer":0,
			"byteLength":5208,
			"byteOffset":205872,
			"target":34962
		},
		{
			"buffer":0,
			"byteLength":7812,
			"byteOffset":211080,
			"target":34962
		},
		{
			"buffer":0,
			"byteLength":7812,
			"byteOffset":218892,
			"target":34962
		},
		{
			"buffer":0,
			"byteLength":5208,
			"byteOffset":226704,
			"target":34962
		},
		{
			"buffer":0,
			"byteLength":7812,
			"byteOffset":231912,
			"target":34962
		},
		{
			"buffer":0,
			"byteLength":7812,
			"byteOffset":239724,
			"target":34962
		},
		{
			"buffer":0,
			"byteLength":5208,
			"byteOffset":247536,
			"target":34962
		},
		{
			"buffer":0,
			"byteLength":7812,
			"byteOffset":252744,
			"target":34962
		},
		{
			"buffer":0,
			"byteLength":7812,
			"byteOffset":260556,
			"target":34962
		},
		{
			"buffer":0,
			"byteLength":5208,
			"byteOffset":268368,
			"target":34962
		},
		{
			"buffer":0,
			"byteLength":7812,
			"byteOffset":273576,
			"target":34962
		},
		{
			"buffer":0,
			"byteLength":7812,
			"byteOffset":281388,
			"target":34962
		},
		{
			"buffer":0,
			"byteLength":5208,
			"byteOffset":289200,
			"target":34962
		},
		{
			"buffer":0,
			"byteLength":7812,
			"byteOffset":294408,
			"target":34962
		},
		{
			"buffer":0,
			"byteLength":7812,
			"byteOffset":302220,
			"target":34962
		},
		{
			"buffer":0,
			"byteLength":5208,
			"byteOffset":310032,
			"target":34962
		}
	],
	"buffers":[
		{
			"byteLength":315240,
			"uri":"coin_tower.bin"
		}
	]
}
