{
	"asset":{
		"generator":"Khronos glTF Blender I/O v5.1.19",
		"version":"2.0"
	},
	"extensionsUsed":[
		"KHR_materials_specular",
		"KHR_materials_ior"
	],
	"scene":0,
	"scenes":[
		{
			"name":"Scene",
			"nodes":[
				2
			]
		}
	],
	"nodes":[
		{
			"mesh":0,
			"name":"curve"
		},
		{
			"mesh":1,
			"name":"partition",
			"translation":[
				0,
				-0.0041250200010836124,
				0
			]
		},
		{
			"children":[
				0,
				1
			],
			"mesh":2,
			"name":"frame",
			"scale":[
				1,
				1,
				1.7999999523162842
			]
		}
	],
	"materials":[
		{
			"doubleSided":true,
			"extensions":{
				"KHR_materials_specular":{
					"specularFactor":0.4000000059604645
				},
				"KHR_materials_ior":{
					"ior":2
				}
			},
			"name":"curve",
			"pbrMetallicRoughness":{
				"baseColorFactor":[
					0.03310399502515793,
					0.03310399502515793,
					0.03310399502515793,
					1
				],
				"metallicFactor":0.20000000298023224,
				"roughnessFactor":0.5
			}
		},
		{
			"doubleSided":true,
			"extensions":{
				"KHR_materials_specular":{
					"specularFactor":0.4000000059604645
				}
			},
			"name":"partition",
			"pbrMetallicRoughness":{
				"baseColorFactor":[
					0.7874181866645813,
					0.33273014426231384,
					0.027210647240281105,
					1
				],
				"metallicFactor":0,
				"roughnessFactor":0.5
			}
		},
		{
			"doubleSided":true,
			"extensions":{
				"KHR_materials_specular":{
					"specularFactor":0.4000000059604645
				}
			},
			"name":"case",
			"pbrMetallicRoughness":{
				"baseColorFactor":[
					0.4479812979698181,
					0.019231241196393967,
					0.017388733103871346,
					1
				],
				"metallicFactor":0,
				"roughnessFactor":0.5
			}
		}
	],
	"meshes":[
		{
			"name":"curve",
			"primitives":[
				{
					"attributes":{
						"POSITION":0,
						"NORMAL":1,
						"TEXCOORD_0":2
					},
					"indices":3,
					"material":0
				}
			]
		},
		{
			"name":"partition",
			"primitives":[
				{
					"attributes":{
						"POSITION":4,
						"NORMAL":5,
						"TEXCOORD_0":6
					},
					"indices":7,
					"material":1
				}
			]
		},
		{
			"name":"frame",
			"primitives":[
				{
					"attributes":{
						"POSITION":8,
						"NORMAL":9,
						"TEXCOORD_0":10
					},
					"indices":11,
					"material":2
				}
			]
		}
	],
	"accessors":[
		{
			"bufferView":0,
			"componentType":5126,
			"count":91,
			"max":[
				0.858578622341156,
				0.9366239309310913,
				-0.382377952337265
			],
			"min":[
				-0.858578622341156,
				0.7897840142250061,
				-0.858578622341156
			],
			"type":"VEC3"
		},
		{
			"bufferView":1,
			"componentType":5126,
			"count":91,
			"type":"VEC3"
		},
		{
			"bufferView":2,
			"componentType":5126,
			"count":91,
			"type":"VEC2"
		},
		{
			"bufferView":3,
			"componentType":5123,
			"count":447,
			"type":"SCALAR"
		},
		{
			"bufferView":4,
			"componentType":5126,
			"count":264,
			"max":[
				0.6482704877853394,
				1,
				0.8685786128044128
			],
			"min":[
				-0.6482704877853394,
				0.6897839903831482,
				-0.141421377658844
			],
			"type":"VEC3"
		},
		{
			"bufferView":5,
			"componentType":5126,
			"count":264,
			"type":"VEC3"
		},
		{
			"bufferView":6,
			"componentType":5126,
			"count":264,
			"type":"VEC2"
		},
		{
			"bufferView":7,
			"componentType":5123,
			"count":414,
			"type":"SCALAR"
		},
		{
			"bufferView":8,
			"componentType":5126,
			"count":218,
			"max":[
				1,
				1,
				1
			],
			"min":[
				-1,
				0,
				-1
			],
			"type":"VEC3"
		},
		{
			"bufferView":9,
			"componentType":5126,
			"count":218,
			"type":"VEC3"
		},
		{
			"bufferView":10,
			"componentType":5126,
			"count":218,
			"type":"VEC2"
		},
		{
			"bufferView":11,
			"componentType":5123,
			"count":828,
			"type":"SCALAR"
		}
	],
	"bufferViews":[
		{
			"buffer":0,
			"byteLength":1092,
			"byteOffset":0,
			"target":34962
		},
		{
			"buffer":0,
			"byteLength":1092,
			"byteOffset":1092,
			"target":34962
		},
		{
			"buffer":0,
			"byteLength":728,
			"byteOffset":2184,
			"target":34962
		},
		{
			"buffer":0,
			"byteLength":894,
			"byteOffset":2912,
			"target":34963
		},
		{
			"buffer":0,
			"byteLength":3168,
			"byteOffset":3808,
			"target":34962
		},
		{
			"buffer":0,
			"byteLength":3168,
			"byteOffset":6976,
			"target":34962
		},
		{
			"buffer":0,
			"byteLength":2112,
			"byteOffset":10144,
			"target":34962
		},
		{
			"buffer":0,
			"byteLength":828,
			"byteOffset":12256,
			"target":34963
		},
		{
			"buffer":0,
			"byteLength":2616,
			"byteOffset":13084,
			"target":34962
		},
		{
			"buffer":0,
			"byteLength":2616,
			"byteOffset":15700,
			"target":34962
		},
		{
			"buffer":0,
			"byteLength":1744,
			"byteOffset":18316,
			"target":34962
		},
		{
			"buffer":0,
			"byteLength":1656,
			"byteOffset":20060,
			"target":34963
		}
	],
	"buffers":[
		{
			"byteLength":21716,
			"uri":"pinball_frame.bin"
		}
	]
}
