{
	"asset":{
		"generator":"Khronos glTF Blender I/O v5.1.19",
		"version":"2.0"
	},
	"scene":0,
	"scenes":[
		{
			"name":"Scene",
			"nodes":[
				0
			]
		}
	],
	"nodes":[
		{
			"mesh":0,
			"name":"bumper"
		}
	],
	"materials":[
		{
			"doubleSided":true,
			"name":"bumper_01",
			"pbrMetallicRoughness":{
				"baseColorFactor":[
					0.6038312911987305,
					0.5836870670318604,
					0.4200284481048584,
					1
				],
				"metallicFactor":0,
				"roughnessFactor":0.5
			}
		},
		{
			"doubleSided":true,
			"name":"bumper_02",
			"pbrMetallicRoughness":{
				"baseColorFactor":[
					0.04780133068561554,
					0.16344530880451202,
					0.49875718355178833,
					1
				],
				"metallicFactor":0,
				"roughnessFactor":0.5
			}
		}
	],
	"meshes":[
		{
			"name":"bumper",
			"primitives":[
				{
					"attributes":{
						"POSITION":0,
						"NORMAL":1,
						"TEXCOORD_0":2
					},
					"indices":3,
					"material":0
				},
				{
					"attributes":{
						"POSITION":4,
						"NORMAL":5,
						"TEXCOORD_0":6
					},
					"indices":7,
					"material":1
				}
			]
		}
	],
	"accessors":[
		{
			"bufferView":0,
			"componentType":5126,
			"count":163,
			"max":[
				0.07728000730276108,
				0.1704065203666687,
				0.07728000730276108
			],
			"min":[
				-0.07728001475334167,
				0.0004061758518218994,
				-0.07728000730276108
			],
			"type":"VEC3"
		},
		{
			"bufferView":1,
			"componentType":5126,
			"count":163,
			"type":"VEC3"
		},
		{
			"bufferView":2,
			"componentType":5126,
			"count":163,
			"type":"VEC2"
		},
		{
			"bufferView":3,
			"componentType":5123,
			"count":672,
			"type":"SCALAR"
		},
		{
			"bufferView":4,
			"componentType":5126,
			"count":293,
			"max":[
				0.12000000476837158,
				0.1597030758857727,
				0.12000000476837158
			],
			"min":[
				-0.12000000476837158,
				0.0004061758518218994,
				-0.12000000476837158
			],
			"type":"VEC3"
		},
		{
			"bufferView":5,
			"componentType":5126,
			"count":293,
			"type":"VEC3"
		},
		{
			"bufferView":6,
			"componentType":5126,
			"count":293,
			"type":"VEC2"
		},
		{
			"bufferView":7,
			"componentType":5123,
			"count":1248,
			"type":"SCALAR"
		}
	],
	"bufferViews":[
		{
			"buffer":0,
			"byteLength":1956,
			"byteOffset":0,
			"target":34962
		},
		{
			"buffer":0,
			"byteLength":1956,
			"byteOffset":1956,
			"target":34962
		},
		{
			"buffer":0,
			"byteLength":1304,
			"byteOffset":3912,
			"target":34962
		},
		{
			"buffer":0,
			"byteLength":1344,
			"byteOffset":5216,
			"target":34963
		},
		{
			"buffer":0,
			"byteLength":3516,
			"byteOffset":6560,
			"target":34962
		},
		{
			"buffer":0,
			"byteLength":3516,
			"byteOffset":10076,
			"target":34962
		},
		{
			"buffer":0,
			"byteLength":2344,
			"byteOffset":13592,
			"target":34962
		},
		{
			"buffer":0,
			"byteLength":2496,
			"byteOffset":15936,
			"target":34963
		}
	],
	"buffers":[
		{
			"byteLength":18432,
			"uri":"pinball_bumper.bin"
		}
	]
}
