{
	"asset":{
		"generator":"Khronos glTF Blender I/O v5.1.19",
		"version":"2.0"
	},
	"extensionsUsed":[
		"KHR_materials_transmission"
	],
	"scene":0,
	"scenes":[
		{
			"name":"Scene",
			"nodes":[
				0
			]
		}
	],
	"nodes":[
		{
			"mesh":0,
			"name":"prisume",
			"translation":[
				0,
				0.05999999865889549,
				0
			]
		}
	],
	"materials":[
		{
			"alphaMode":"BLEND",
			"doubleSided":true,
			"extensions":{
				"KHR_materials_transmission":{
					"transmissionFactor":1
				}
			},
			"name":"\u30de\u30c6\u30ea\u30a2\u30eb",
			"pbrMetallicRoughness":{
				"baseColorFactor":[
					1,
					1,
					1,
					0.6000000238418579
				],
				"metallicFactor":0,
				"roughnessFactor":0.10000000149011612
			}
		}
	],
	"meshes":[
		{
			"name":"prisume",
			"primitives":[
				{
					"attributes":{
						"POSITION":0,
						"NORMAL":1,
						"TEXCOORD_0":2
					},
					"indices":3,
					"material":0
				}
			]
		}
	],
	"accessors":[
		{
			"bufferView":0,
			"componentType":5126,
			"count":11,
			"max":[
				0.03359999880194664,
				0.07799996435642242,
				0.03359999880194664
			],
			"min":[
				-0.03359999880194664,
				-0.03200002387166023,
				-0.03359999880194664
			],
			"type":"VEC3"
		},
		{
			"bufferView":1,
			"componentType":5126,
			"count":11,
			"type":"VEC3"
		},
		{
			"bufferView":2,
			"componentType":5126,
			"count":11,
			"type":"VEC2"
		},
		{
			"bufferView":3,
			"componentType":5123,
			"count":18,
			"type":"SCALAR"
		}
	],
	"bufferViews":[
		{
			"buffer":0,
			"byteLength":132,
			"byteOffset":0,
			"target":34962
		},
		{
			"buffer":0,
			"byteLength":132,
			"byteOffset":132,
			"target":34962
		},
		{
			"buffer":0,
			"byteLength":88,
			"byteOffset":264,
			"target":34962
		},
		{
			"buffer":0,
			"byteLength":36,
			"byteOffset":352,
			"target":34963
		}
	],
	"buffers":[
		{
			"byteLength":388,
			"uri":"pinball_prisume.bin"
		}
	]
}
