{
	"asset":{
		"generator":"Khronos glTF Blender I/O v5.1.19",
		"version":"2.0"
	},
	"scene":0,
	"scenes":[
		{
			"name":"Scene",
			"nodes":[
				0
			]
		}
	],
	"nodes":[
		{
			"mesh":0,
			"name":"propeller",
			"scale":[
				2,
				2,
				2
			],
			"translation":[
				0,
				0.10000000149011612,
				0
			]
		}
	],
	"materials":[
		{
			"doubleSided":true,
			"name":"propeller",
			"pbrMetallicRoughness":{
				"baseColorFactor":[
					0.8000074625015259,
					0.005396842025220394,
					0.17232191562652588,
					1
				],
				"metallicFactor":0,
				"roughnessFactor":0.5
			}
		}
	],
	"meshes":[
		{
			"name":"propeller",
			"primitives":[
				{
					"attributes":{
						"POSITION":0,
						"NORMAL":1,
						"TEXCOORD_0":2
					},
					"indices":3,
					"material":0
				}
			]
		}
	],
	"accessors":[
		{
			"bufferView":0,
			"componentType":5126,
			"count":164,
			"max":[
				0.07639144361019135,
				0.012500002980232239,
				0.07824649661779404
			],
			"min":[
				-0.05913545936346054,
				-0.05000005662441254,
				-0.05458949878811836
			],
			"type":"VEC3"
		},
		{
			"bufferView":1,
			"componentType":5126,
			"count":164,
			"type":"VEC3"
		},
		{
			"bufferView":2,
			"componentType":5126,
			"count":164,
			"type":"VEC2"
		},
		{
			"bufferView":3,
			"componentType":5123,
			"count":756,
			"type":"SCALAR"
		}
	],
	"bufferViews":[
		{
			"buffer":0,
			"byteLength":1968,
			"byteOffset":0,
			"target":34962
		},
		{
			"buffer":0,
			"byteLength":1968,
			"byteOffset":1968,
			"target":34962
		},
		{
			"buffer":0,
			"byteLength":1312,
			"byteOffset":3936,
			"target":34962
		},
		{
			"buffer":0,
			"byteLength":1512,
			"byteOffset":5248,
			"target":34963
		}
	],
	"buffers":[
		{
			"byteLength":6760,
			"uri":"pinball_propeller.bin"
		}
	]
}
