{
	"asset":{
		"generator":"Khronos glTF Blender I/O v5.1.19",
		"version":"2.0"
	},
	"extensionsUsed":[
		"KHR_materials_specular"
	],
	"scene":0,
	"scenes":[
		{
			"name":"Scene",
			"nodes":[
				0
			]
		}
	],
	"nodes":[
		{
			"mesh":0,
			"name":"flipper",
			"rotation":[
				0,
				-1,
				0,
				4.371138828673793e-08
			],
			"translation":[
				0,
				0.800000011920929,
				0
			]
		}
	],
	"materials":[
		{
			"doubleSided":true,
			"name":"gate_01",
			"pbrMetallicRoughness":{
				"baseColorFactor":[
					0.03310399502515793,
					0,
					0,
					1
				],
				"metallicFactor":0,
				"roughnessFactor":0.5
			}
		},
		{
			"doubleSided":true,
			"extensions":{
				"KHR_materials_specular":{
					"specularFactor":0.4000000059604645
				}
			},
			"name":"gate_02",
			"pbrMetallicRoughness":{
				"baseColorFactor":[
					0.7874181866645813,
					0.33273014426231384,
					0.027210647240281105,
					1
				],
				"metallicFactor":0,
				"roughnessFactor":0.5
			}
		}
	],
	"meshes":[
		{
			"name":"flipper",
			"primitives":[
				{
					"attributes":{
						"POSITION":0,
						"NORMAL":1,
						"TEXCOORD_0":2
					},
					"indices":3,
					"material":0
				},
				{
					"attributes":{
						"POSITION":4,
						"NORMAL":5,
						"TEXCOORD_0":6
					},
					"indices":7,
					"material":1
				}
			]
		}
	],
	"accessors":[
		{
			"bufferView":0,
			"componentType":5126,
			"count":14,
			"max":[
				0.015365812927484512,
				-0.6519994139671326,
				0.01772879622876644
			],
			"min":[
				-0.11520574986934662,
				-0.6519994139671326,
				-0.01772879622876644
			],
			"type":"VEC3"
		},
		{
			"bufferView":1,
			"componentType":5126,
			"count":14,
			"type":"VEC3"
		},
		{
			"bufferView":2,
			"componentType":5126,
			"count":14,
			"type":"VEC2"
		},
		{
			"bufferView":3,
			"componentType":5123,
			"count":36,
			"type":"SCALAR"
		},
		{
			"bufferView":4,
			"componentType":5126,
			"count":95,
			"max":[
				0.030000001192092896,
				-0.6499993801116943,
				0.030000001192092896
			],
			"min":[
				-0.12999999523162842,
				-0.7999997735023499,
				-0.030000001192092896
			],
			"type":"VEC3"
		},
		{
			"bufferView":5,
			"componentType":5126,
			"count":95,
			"type":"VEC3"
		},
		{
			"bufferView":6,
			"componentType":5126,
			"count":95,
			"type":"VEC2"
		},
		{
			"bufferView":7,
			"componentType":5123,
			"count":372,
			"type":"SCALAR"
		}
	],
	"bufferViews":[
		{
			"buffer":0,
			"byteLength":168,
			"byteOffset":0,
			"target":34962
		},
		{
			"buffer":0,
			"byteLength":168,
			"byteOffset":168,
			"target":34962
		},
		{
			"buffer":0,
			"byteLength":112,
			"byteOffset":336,
			"target":34962
		},
		{
			"buffer":0,
			"byteLength":72,
			"byteOffset":448,
			"target":34963
		},
		{
			"buffer":0,
			"byteLength":1140,
			"byteOffset":520,
			"target":34962
		},
		{
			"buffer":0,
			"byteLength":1140,
			"byteOffset":1660,
			"target":34962
		},
		{
			"buffer":0,
			"byteLength":760,
			"byteOffset":2800,
			"target":34962
		},
		{
			"buffer":0,
			"byteLength":744,
			"byteOffset":3560,
			"target":34963
		}
	],
	"buffers":[
		{
			"byteLength":4304,
			"uri":"pinball_gate.bin"
		}
	]
}
