{
	"asset":{
		"generator":"Khronos glTF Blender I/O v5.1.19",
		"version":"2.0"
	},
	"scene":0,
	"scenes":[
		{
			"name":"Scene",
			"nodes":[
				0
			]
		}
	],
	"nodes":[
		{
			"mesh":0,
			"name":"pin",
			"scale":[
				1,
				3.5,
				1
			]
		}
	],
	"materials":[
		{
			"doubleSided":true,
			"name":"pin",
			"pbrMetallicRoughness":{
				"baseColorFactor":[
					0.800000011920929,
					0.800000011920929,
					0.800000011920929,
					1
				],
				"metallicFactor":0,
				"roughnessFactor":0.5
			}
		}
	],
	"meshes":[
		{
			"name":"pin",
			"primitives":[
				{
					"attributes":{
						"POSITION":0,
						"NORMAL":1,
						"TEXCOORD_0":2
					},
					"indices":3,
					"material":0
				}
			]
		}
	],
	"accessors":[
		{
			"bufferView":0,
			"componentType":5126,
			"count":93,
			"max":[
				0.020000003278255463,
				0.05665680766105652,
				0.019999999552965164
			],
			"min":[
				-0.019999995827674866,
				-0.10191446542739868,
				-0.019999999552965164
			],
			"type":"VEC3"
		},
		{
			"bufferView":1,
			"componentType":5126,
			"count":93,
			"type":"VEC3"
		},
		{
			"bufferView":2,
			"componentType":5126,
			"count":93,
			"type":"VEC2"
		},
		{
			"bufferView":3,
			"componentType":5123,
			"count":288,
			"type":"SCALAR"
		}
	],
	"bufferViews":[
		{
			"buffer":0,
			"byteLength":1116,
			"byteOffset":0,
			"target":34962
		},
		{
			"buffer":0,
			"byteLength":1116,
			"byteOffset":1116,
			"target":34962
		},
		{
			"buffer":0,
			"byteLength":744,
			"byteOffset":2232,
			"target":34962
		},
		{
			"buffer":0,
			"byteLength":576,
			"byteOffset":2976,
			"target":34963
		}
	],
	"buffers":[
		{
			"byteLength":3552,
			"uri":"pinball_pin.bin"
		}
	]
}
