{
	"asset":{
		"generator":"Khronos glTF Blender I/O v5.1.19",
		"version":"2.0"
	},
	"scene":0,
	"scenes":[
		{
			"name":"Scene",
			"nodes":[
				0
			]
		}
	],
	"nodes":[
		{
			"mesh":0,
			"name":"stick",
			"rotation":[
				0.7071068286895752,
				0,
				0,
				0.7071068286895752
			],
			"translation":[
				0,
				0,
				-1
			]
		}
	],
	"materials":[
		{
			"doubleSided":true,
			"name":"01",
			"pbrMetallicRoughness":{
				"baseColorFactor":[
					0.03310399502515793,
					0.03310399502515793,
					0.03310399502515793,
					1
				],
				"metallicFactor":0.20000000298023224,
				"roughnessFactor":0.5
			}
		},
		{
			"doubleSided":true,
			"name":"02",
			"pbrMetallicRoughness":{
				"baseColorFactor":[
					0.8000315427780151,
					0.13174213469028473,
					0.013057742267847061,
					1
				],
				"metallicFactor":0,
				"roughnessFactor":0.5
			}
		}
	],
	"meshes":[
		{
			"name":"stick",
			"primitives":[
				{
					"attributes":{
						"POSITION":0,
						"NORMAL":1,
						"TEXCOORD_0":2
					},
					"indices":3,
					"material":0
				},
				{
					"attributes":{
						"POSITION":4,
						"NORMAL":5,
						"TEXCOORD_0":6
					},
					"indices":7,
					"material":1
				}
			]
		}
	],
	"accessors":[
		{
			"bufferView":0,
			"componentType":5126,
			"count":128,
			"max":[
				0.0598064586520195,
				2.0850000381469727,
				0.0598064586520195
			],
			"min":[
				-0.0598064586520195,
				0.07500000298023224,
				-0.0598064586520195
			],
			"type":"VEC3"
		},
		{
			"bufferView":1,
			"componentType":5126,
			"count":128,
			"type":"VEC3"
		},
		{
			"bufferView":2,
			"componentType":5126,
			"count":128,
			"type":"VEC2"
		},
		{
			"bufferView":3,
			"componentType":5123,
			"count":576,
			"type":"SCALAR"
		},
		{
			"bufferView":4,
			"componentType":5126,
			"count":388,
			"max":[
				0.10000000149011612,
				2.130000114440918,
				0.10000000149011612
			],
			"min":[
				-0.10000000149011612,
				-0.02500000223517418,
				-0.10000000149011612
			],
			"type":"VEC3"
		},
		{
			"bufferView":5,
			"componentType":5126,
			"count":388,
			"type":"VEC3"
		},
		{
			"bufferView":6,
			"componentType":5126,
			"count":388,
			"type":"VEC2"
		},
		{
			"bufferView":7,
			"componentType":5123,
			"count":1728,
			"type":"SCALAR"
		}
	],
	"bufferViews":[
		{
			"buffer":0,
			"byteLength":1536,
			"byteOffset":0,
			"target":34962
		},
		{
			"buffer":0,
			"byteLength":1536,
			"byteOffset":1536,
			"target":34962
		},
		{
			"buffer":0,
			"byteLength":1024,
			"byteOffset":3072,
			"target":34962
		},
		{
			"buffer":0,
			"byteLength":1152,
			"byteOffset":4096,
			"target":34963
		},
		{
			"buffer":0,
			"byteLength":4656,
			"byteOffset":5248,
			"target":34962
		},
		{
			"buffer":0,
			"byteLength":4656,
			"byteOffset":9904,
			"target":34962
		},
		{
			"buffer":0,
			"byteLength":3104,
			"byteOffset":14560,
			"target":34962
		},
		{
			"buffer":0,
			"byteLength":3456,
			"byteOffset":17664,
			"target":34963
		}
	],
	"buffers":[
		{
			"byteLength":21120,
			"uri":"pinball_stick.bin"
		}
	]
}
