{
	"asset":{
		"generator":"Khronos glTF Blender I/O v5.1.19",
		"version":"2.0"
	},
	"extensionsUsed":[
		"KHR_materials_emissive_strength"
	],
	"scene":0,
	"scenes":[
		{
			"name":"Scene",
			"nodes":[
				0
			]
		}
	],
	"nodes":[
		{
			"mesh":0,
			"name":"\u7403"
		}
	],
	"materials":[
		{
			"doubleSided":true,
			"name":"degreate_core_01",
			"pbrMetallicRoughness":{
				"baseColorFactor":[
					0,
					0,
					0,
					1
				],
				"metallicFactor":0,
				"roughnessFactor":0.5
			}
		},
		{
			"doubleSided":true,
			"emissiveFactor":[
				0.5790857076644897,
				0,
				1
			],
			"extensions":{
				"KHR_materials_emissive_strength":{
					"emissiveStrength":10
				}
			},
			"name":"degreate_core_02",
			"pbrMetallicRoughness":{
				"baseColorFactor":[
					0,
					0,
					0,
					1
				]
			}
		}
	],
	"meshes":[
		{
			"name":"\u7403.001",
			"primitives":[
				{
					"attributes":{
						"POSITION":0,
						"NORMAL":1,
						"TEXCOORD_0":2
					},
					"indices":3,
					"material":0
				},
				{
					"attributes":{
						"POSITION":4,
						"NORMAL":5,
						"TEXCOORD_0":6
					},
					"indices":7,
					"material":1
				}
			]
		}
	],
	"accessors":[
		{
			"bufferView":0,
			"componentType":5126,
			"count":8150,
			"max":[
				0.04999999329447746,
				0.05000000074505806,
				0.04809696599841118
			],
			"min":[
				-0.04999997466802597,
				-0.05000000074505806,
				-0.05000000074505806
			],
			"type":"VEC3"
		},
		{
			"bufferView":1,
			"componentType":5126,
			"count":8150,
			"type":"VEC3"
		},
		{
			"bufferView":2,
			"componentType":5126,
			"count":8150,
			"type":"VEC2"
		},
		{
			"bufferView":3,
			"componentType":5123,
			"count":11856,
			"type":"SCALAR"
		},
		{
			"bufferView":4,
			"componentType":5126,
			"count":584,
			"max":[
				0.027287721633911133,
				0.03586111590266228,
				0.047582756727933884
			],
			"min":[
				-0.037386663258075714,
				-0.037211231887340546,
				0.014569301158189774
			],
			"type":"VEC3"
		},
		{
			"bufferView":5,
			"componentType":5126,
			"count":584,
			"type":"VEC3"
		},
		{
			"bufferView":6,
			"componentType":5126,
			"count":584,
			"type":"VEC2"
		},
		{
			"bufferView":7,
			"componentType":5123,
			"count":816,
			"type":"SCALAR"
		}
	],
	"bufferViews":[
		{
			"buffer":0,
			"byteLength":97800,
			"byteOffset":0,
			"target":34962
		},
		{
			"buffer":0,
			"byteLength":97800,
			"byteOffset":97800,
			"target":34962
		},
		{
			"buffer":0,
			"byteLength":65200,
			"byteOffset":195600,
			"target":34962
		},
		{
			"buffer":0,
			"byteLength":23712,
			"byteOffset":260800,
			"target":34963
		},
		{
			"buffer":0,
			"byteLength":7008,
			"byteOffset":284512,
			"target":34962
		},
		{
			"buffer":0,
			"byteLength":7008,
			"byteOffset":291520,
			"target":34962
		},
		{
			"buffer":0,
			"byteLength":4672,
			"byteOffset":298528,
			"target":34962
		},
		{
			"buffer":0,
			"byteLength":1632,
			"byteOffset":303200,
			"target":34963
		}
	],
	"buffers":[
		{
			"byteLength":304832,
			"uri":"pinball_degreate_core.bin"
		}
	]
}
