{
	"asset":{
		"generator":"Khronos glTF Blender I/O v5.1.19",
		"version":"2.0"
	},
	"extensionsUsed":[
		"KHR_materials_specular",
		"KHR_materials_ior"
	],
	"scene":0,
	"scenes":[
		{
			"name":"Scene",
			"nodes":[
				3
			]
		}
	],
	"nodes":[
		{
			"mesh":0,
			"name":"root1"
		},
		{
			"mesh":1,
			"name":"root2",
			"translation":[
				0,
				-0.0041250200010836124,
				0
			]
		},
		{
			"mesh":2,
			"name":"root3"
		},
		{
			"children":[
				0,
				1,
				2
			],
			"mesh":3,
			"name":"root0",
			"scale":[
				1,
				1,
				1.7999999523162842
			]
		}
	],
	"materials":[
		{
			"doubleSided":true,
			"extensions":{
				"KHR_materials_specular":{
					"specularFactor":0.4000000059604645
				},
				"KHR_materials_ior":{
					"ior":1
				}
			},
			"name":"back",
			"pbrMetallicRoughness":{
				"baseColorFactor":[
					0.0032250951044261456,
					0.5274293422698975,
					0.2532510459423065,
					1
				],
				"metallicFactor":0.20000000298023224,
				"roughnessFactor":0.05000000074505806
			}
		},
		{
			"doubleSided":true,
			"extensions":{
				"KHR_materials_specular":{
					"specularFactor":0.4000000059604645
				},
				"KHR_materials_ior":{
					"ior":10
				}
			},
			"name":"partition",
			"pbrMetallicRoughness":{
				"baseColorFactor":[
					0.030660826712846756,
					0.03198689594864845,
					0.010768596082925797,
					1
				],
				"metallicFactor":0.5181818008422852
			}
		},
		{
			"doubleSided":true,
			"extensions":{
				"KHR_materials_specular":{
					"specularFactor":0.20000000298023224
				},
				"KHR_materials_ior":{
					"ior":10
				}
			},
			"name":"curve",
			"pbrMetallicRoughness":{
				"baseColorFactor":[
					0,
					0,
					0,
					1
				],
				"metallicFactor":0.10000000149011612
			}
		},
		{
			"doubleSided":true,
			"extensions":{
				"KHR_materials_specular":{
					"specularFactor":0.4000000059604645
				}
			},
			"name":"case",
			"pbrMetallicRoughness":{
				"baseColorFactor":[
					0.29565316438674927,
					0.017502544447779655,
					0.005130532197654247,
					1
				],
				"metallicFactor":0.10000000149011612
			}
		}
	],
	"meshes":[
		{
			"name":"back",
			"primitives":[
				{
					"attributes":{
						"POSITION":0,
						"NORMAL":1,
						"TEXCOORD_0":2
					},
					"indices":3,
					"material":0
				}
			]
		},
		{
			"name":"partition",
			"primitives":[
				{
					"attributes":{
						"POSITION":4,
						"NORMAL":5,
						"TEXCOORD_0":6
					},
					"indices":7,
					"material":1
				}
			]
		},
		{
			"name":"curve",
			"primitives":[
				{
					"attributes":{
						"POSITION":8,
						"NORMAL":9,
						"TEXCOORD_0":10
					},
					"indices":11,
					"material":2
				}
			]
		},
		{
			"name":"case",
			"primitives":[
				{
					"attributes":{
						"POSITION":12,
						"NORMAL":13,
						"TEXCOORD_0":14
					},
					"indices":15,
					"material":3
				}
			]
		}
	],
	"accessors":[
		{
			"bufferView":0,
			"componentType":5126,
			"count":36,
			"max":[
				0.858578622341156,
				0.7897840142250061,
				0.858578622341156
			],
			"min":[
				-0.858578622341156,
				0.7897840142250061,
				-0.6876614093780518
			],
			"type":"VEC3"
		},
		{
			"bufferView":1,
			"componentType":5126,
			"count":36,
			"type":"VEC3"
		},
		{
			"bufferView":2,
			"componentType":5126,
			"count":36,
			"type":"VEC2"
		},
		{
			"bufferView":3,
			"componentType":5123,
			"count":105,
			"type":"SCALAR"
		},
		{
			"bufferView":4,
			"componentType":5126,
			"count":513,
			"max":[
				0.6482704281806946,
				1,
				0.8685786724090576
			],
			"min":[
				-0.8935655355453491,
				0.7939128875732422,
				-0.141421377658844
			],
			"type":"VEC3"
		},
		{
			"bufferView":5,
			"componentType":5126,
			"count":513,
			"type":"VEC3"
		},
		{
			"bufferView":6,
			"componentType":5126,
			"count":513,
			"type":"VEC2"
		},
		{
			"bufferView":7,
			"componentType":5123,
			"count":987,
			"type":"SCALAR"
		},
		{
			"bufferView":8,
			"componentType":5126,
			"count":91,
			"max":[
				0.858578622341156,
				0.9366239309310913,
				-0.382377952337265
			],
			"min":[
				-0.858578622341156,
				0.7897840142250061,
				-0.858578622341156
			],
			"type":"VEC3"
		},
		{
			"bufferView":9,
			"componentType":5126,
			"count":91,
			"type":"VEC3"
		},
		{
			"bufferView":10,
			"componentType":5126,
			"count":91,
			"type":"VEC2"
		},
		{
			"bufferView":11,
			"componentType":5123,
			"count":447,
			"type":"SCALAR"
		},
		{
			"bufferView":12,
			"componentType":5126,
			"count":211,
			"max":[
				1,
				1,
				1
			],
			"min":[
				-1,
				0,
				-1
			],
			"type":"VEC3"
		},
		{
			"bufferView":13,
			"componentType":5126,
			"count":211,
			"type":"VEC3"
		},
		{
			"bufferView":14,
			"componentType":5126,
			"count":211,
			"type":"VEC2"
		},
		{
			"bufferView":15,
			"componentType":5123,
			"count":828,
			"type":"SCALAR"
		}
	],
	"bufferViews":[
		{
			"buffer":0,
			"byteLength":432,
			"byteOffset":0,
			"target":34962
		},
		{
			"buffer":0,
			"byteLength":432,
			"byteOffset":432,
			"target":34962
		},
		{
			"buffer":0,
			"byteLength":288,
			"byteOffset":864,
			"target":34962
		},
		{
			"buffer":0,
			"byteLength":210,
			"byteOffset":1152,
			"target":34963
		},
		{
			"buffer":0,
			"byteLength":6156,
			"byteOffset":1364,
			"target":34962
		},
		{
			"buffer":0,
			"byteLength":6156,
			"byteOffset":7520,
			"target":34962
		},
		{
			"buffer":0,
			"byteLength":4104,
			"byteOffset":13676,
			"target":34962
		},
		{
			"buffer":0,
			"byteLength":1974,
			"byteOffset":17780,
			"target":34963
		},
		{
			"buffer":0,
			"byteLength":1092,
			"byteOffset":19756,
			"target":34962
		},
		{
			"buffer":0,
			"byteLength":1092,
			"byteOffset":20848,
			"target":34962
		},
		{
			"buffer":0,
			"byteLength":728,
			"byteOffset":21940,
			"target":34962
		},
		{
			"buffer":0,
			"byteLength":894,
			"byteOffset":22668,
			"target":34963
		},
		{
			"buffer":0,
			"byteLength":2532,
			"byteOffset":23564,
			"target":34962
		},
		{
			"buffer":0,
			"byteLength":2532,
			"byteOffset":26096,
			"target":34962
		},
		{
			"buffer":0,
			"byteLength":1688,
			"byteOffset":28628,
			"target":34962
		},
		{
			"buffer":0,
			"byteLength":1656,
			"byteOffset":30316,
			"target":34963
		}
	],
	"buffers":[
		{
			"byteLength":31972,
			"uri":"pinball_case.bin"
		}
	]
}
