{
	"asset":{
		"generator":"Khronos glTF Blender I/O v5.1.19",
		"version":"2.0"
	},
	"scene":0,
	"scenes":[
		{
			"name":"Scene",
			"nodes":[
				0
			]
		}
	],
	"nodes":[
		{
			"mesh":0,
			"name":"coin",
			"rotation":[
				0.7071068286895752,
				0,
				0,
				0.7071068286895752
			],
			"scale":[
				0.800000011920929,
				0.800000011920929,
				0.800000011920929
			],
			"translation":[
				0,
				0.8999999761581421,
				0
			]
		}
	],
	"materials":[
		{
			"doubleSided":true,
			"name":"coin",
			"pbrMetallicRoughness":{
				"baseColorFactor":[
					0.7674481868743896,
					0.44859081506729126,
					0.007226800080388784,
					1
				],
				"metallicFactor":0.5,
				"roughnessFactor":0.20000000298023224
			}
		}
	],
	"meshes":[
		{
			"name":"coin",
			"primitives":[
				{
					"attributes":{
						"POSITION":0,
						"NORMAL":1,
						"TEXCOORD_0":2
					},
					"indices":3,
					"material":0
				}
			]
		}
	],
	"accessors":[
		{
			"bufferView":0,
			"componentType":5126,
			"count":403,
			"max":[
				0.05000000447034836,
				0.007500049192458391,
				1.1749999523162842
			],
			"min":[
				-0.05000000447034836,
				-0.0074999574571847916,
				1.0750000476837158
			],
			"type":"VEC3"
		},
		{
			"bufferView":1,
			"componentType":5126,
			"count":403,
			"type":"VEC3"
		},
		{
			"bufferView":2,
			"componentType":5126,
			"count":403,
			"type":"VEC2"
		},
		{
			"bufferView":3,
			"componentType":5123,
			"count":1188,
			"type":"SCALAR"
		}
	],
	"bufferViews":[
		{
			"buffer":0,
			"byteLength":4836,
			"byteOffset":0,
			"target":34962
		},
		{
			"buffer":0,
			"byteLength":4836,
			"byteOffset":4836,
			"target":34962
		},
		{
			"buffer":0,
			"byteLength":3224,
			"byteOffset":9672,
			"target":34962
		},
		{
			"buffer":0,
			"byteLength":2376,
			"byteOffset":12896,
			"target":34963
		}
	],
	"buffers":[
		{
			"byteLength":15272,
			"uri":"pinball_coin.bin"
		}
	]
}
