{
	"asset":{
		"generator":"Khronos glTF Blender I/O v5.1.19",
		"version":"2.0"
	},
	"extensionsUsed":[
		"KHR_materials_specular",
		"KHR_materials_ior"
	],
	"scene":0,
	"scenes":[
		{
			"name":"Scene",
			"nodes":[
				3
			]
		}
	],
	"nodes":[
		{
			"mesh":0,
			"name":"root1"
		},
		{
			"mesh":1,
			"name":"root2",
			"translation":[
				0,
				-0.0041250200010836124,
				0
			]
		},
		{
			"mesh":2,
			"name":"root3"
		},
		{
			"children":[
				0,
				1,
				2
			],
			"mesh":3,
			"name":"root0_base",
			"scale":[
				1,
				1,
				1.7999999523162842
			]
		}
	],
	"materials":[
		{
			"doubleSided":true,
			"extensions":{
				"KHR_materials_specular":{
					"specularFactor":0.4000000059604645
				}
			},
			"name":"back",
			"pbrMetallicRoughness":{
				"baseColorFactor":[
					0.0032250951044261456,
					0.5274293422698975,
					0.2532510459423065,
					1
				],
				"metallicFactor":0,
				"roughnessFactor":0.5
			}
		},
		{
			"doubleSided":true,
			"extensions":{
				"KHR_materials_specular":{
					"specularFactor":0.4000000059604645
				}
			},
			"name":"partition",
			"pbrMetallicRoughness":{
				"baseColorFactor":[
					1,
					0.4488953649997711,
					0.02708882838487625,
					1
				],
				"metallicFactor":0,
				"roughnessFactor":0.5
			}
		},
		{
			"doubleSided":true,
			"extensions":{
				"KHR_materials_specular":{
					"specularFactor":0.4000000059604645
				},
				"KHR_materials_ior":{
					"ior":1
				}
			},
			"name":"curve",
			"pbrMetallicRoughness":{
				"baseColorFactor":[
					0.3020741939544678,
					0.7358338236808777,
					0,
					1
				],
				"metallicFactor":0,
				"roughnessFactor":0.5
			}
		},
		{
			"doubleSided":true,
			"extensions":{
				"KHR_materials_specular":{
					"specularFactor":0.4000000059604645
				}
			},
			"name":"case",
			"pbrMetallicRoughness":{
				"baseColorFactor":[
					0.8101427555084229,
					0.028330203145742416,
					0.025296319276094437,
					1
				],
				"metallicFactor":0,
				"roughnessFactor":0.5
			}
		}
	],
	"meshes":[
		{
			"name":"back",
			"primitives":[
				{
					"attributes":{
						"POSITION":0,
						"NORMAL":1,
						"TEXCOORD_0":2
					},
					"indices":3,
					"material":0
				}
			]
		},
		{
			"name":"partition",
			"primitives":[
				{
					"attributes":{
						"POSITION":4,
						"NORMAL":5,
						"TEXCOORD_0":6
					},
					"indices":7,
					"material":1
				}
			]
		},
		{
			"name":"curve",
			"primitives":[
				{
					"attributes":{
						"POSITION":8,
						"NORMAL":9,
						"TEXCOORD_0":10
					},
					"indices":11,
					"material":2
				}
			]
		},
		{
			"name":"case",
			"primitives":[
				{
					"attributes":{
						"POSITION":12,
						"NORMAL":13,
						"TEXCOORD_0":14
					},
					"indices":15,
					"material":3
				}
			]
		}
	],
	"accessors":[
		{
			"bufferView":0,
			"componentType":5126,
			"count":36,
			"max":[
				0.858578622341156,
				0.7897840142250061,
				0.858578622341156
			],
			"min":[
				-0.858578622341156,
				0.7897840142250061,
				-0.6876614093780518
			],
			"type":"VEC3"
		},
		{
			"bufferView":1,
			"componentType":5126,
			"count":36,
			"type":"VEC3"
		},
		{
			"bufferView":2,
			"componentType":5126,
			"count":36,
			"type":"VEC2"
		},
		{
			"bufferView":3,
			"componentType":5123,
			"count":105,
			"type":"SCALAR"
		},
		{
			"bufferView":4,
			"componentType":5126,
			"count":306,
			"max":[
				0.6482704281806946,
				1,
				0.8685786128044128
			],
			"min":[
				-0.6482704877853394,
				0.6897839903831482,
				-0.141421377658844
			],
			"type":"VEC3"
		},
		{
			"bufferView":5,
			"componentType":5126,
			"count":306,
			"type":"VEC3"
		},
		{
			"bufferView":6,
			"componentType":5126,
			"count":306,
			"type":"VEC2"
		},
		{
			"bufferView":7,
			"componentType":5123,
			"count":648,
			"type":"SCALAR"
		},
		{
			"bufferView":8,
			"componentType":5126,
			"count":91,
			"max":[
				0.858578622341156,
				0.9366239309310913,
				-0.382377952337265
			],
			"min":[
				-0.858578622341156,
				0.7897840142250061,
				-0.858578622341156
			],
			"type":"VEC3"
		},
		{
			"bufferView":9,
			"componentType":5126,
			"count":91,
			"type":"VEC3"
		},
		{
			"bufferView":10,
			"componentType":5126,
			"count":91,
			"type":"VEC2"
		},
		{
			"bufferView":11,
			"componentType":5123,
			"count":447,
			"type":"SCALAR"
		},
		{
			"bufferView":12,
			"componentType":5126,
			"count":211,
			"max":[
				1,
				1,
				1
			],
			"min":[
				-1,
				0,
				-1
			],
			"type":"VEC3"
		},
		{
			"bufferView":13,
			"componentType":5126,
			"count":211,
			"type":"VEC3"
		},
		{
			"bufferView":14,
			"componentType":5126,
			"count":211,
			"type":"VEC2"
		},
		{
			"bufferView":15,
			"componentType":5123,
			"count":828,
			"type":"SCALAR"
		}
	],
	"bufferViews":[
		{
			"buffer":0,
			"byteLength":432,
			"byteOffset":0,
			"target":34962
		},
		{
			"buffer":0,
			"byteLength":432,
			"byteOffset":432,
			"target":34962
		},
		{
			"buffer":0,
			"byteLength":288,
			"byteOffset":864,
			"target":34962
		},
		{
			"buffer":0,
			"byteLength":210,
			"byteOffset":1152,
			"target":34963
		},
		{
			"buffer":0,
			"byteLength":3672,
			"byteOffset":1364,
			"target":34962
		},
		{
			"buffer":0,
			"byteLength":3672,
			"byteOffset":5036,
			"target":34962
		},
		{
			"buffer":0,
			"byteLength":2448,
			"byteOffset":8708,
			"target":34962
		},
		{
			"buffer":0,
			"byteLength":1296,
			"byteOffset":11156,
			"target":34963
		},
		{
			"buffer":0,
			"byteLength":1092,
			"byteOffset":12452,
			"target":34962
		},
		{
			"buffer":0,
			"byteLength":1092,
			"byteOffset":13544,
			"target":34962
		},
		{
			"buffer":0,
			"byteLength":728,
			"byteOffset":14636,
			"target":34962
		},
		{
			"buffer":0,
			"byteLength":894,
			"byteOffset":15364,
			"target":34963
		},
		{
			"buffer":0,
			"byteLength":2532,
			"byteOffset":16260,
			"target":34962
		},
		{
			"buffer":0,
			"byteLength":2532,
			"byteOffset":18792,
			"target":34962
		},
		{
			"buffer":0,
			"byteLength":1688,
			"byteOffset":21324,
			"target":34962
		},
		{
			"buffer":0,
			"byteLength":1656,
			"byteOffset":23012,
			"target":34963
		}
	],
	"buffers":[
		{
			"byteLength":24668,
			"uri":"pinballTest.bin"
		}
	]
}
