{
	"asset":{
		"generator":"Khronos glTF Blender I/O v5.1.19",
		"version":"2.0"
	},
	"scene":0,
	"scenes":[
		{
			"name":"Scene",
			"nodes":[
				0
			]
		}
	],
	"nodes":[
		{
			"mesh":0,
			"name":"anntena",
			"scale":[
				0.1599999964237213,
				2,
				0.1599999964237213
			],
			"translation":[
				0,
				0.8999999761581421,
				0
			]
		}
	],
	"materials":[
		{
			"doubleSided":true,
			"name":"antenna",
			"pbrMetallicRoughness":{
				"baseColorFactor":[
					0.16723138093948364,
					0.18548180162906647,
					0.1919589638710022,
					1
				],
				"metallicFactor":0.5,
				"roughnessFactor":0.5
			}
		}
	],
	"meshes":[
		{
			"name":"antenna",
			"primitives":[
				{
					"attributes":{
						"POSITION":0,
						"NORMAL":1,
						"TEXCOORD_0":2
					},
					"indices":3,
					"material":0
				}
			]
		}
	],
	"accessors":[
		{
			"bufferView":0,
			"componentType":5126,
			"count":426,
			"max":[
				0.140625,
				-0.3375004231929779,
				0.140625
			],
			"min":[
				-0.140625,
				-0.4500004053115845,
				-0.140625
			],
			"type":"VEC3"
		},
		{
			"bufferView":1,
			"componentType":5126,
			"count":426,
			"type":"VEC3"
		},
		{
			"bufferView":2,
			"componentType":5126,
			"count":426,
			"type":"VEC2"
		},
		{
			"bufferView":3,
			"componentType":5123,
			"count":894,
			"type":"SCALAR"
		}
	],
	"bufferViews":[
		{
			"buffer":0,
			"byteLength":5112,
			"byteOffset":0,
			"target":34962
		},
		{
			"buffer":0,
			"byteLength":5112,
			"byteOffset":5112,
			"target":34962
		},
		{
			"buffer":0,
			"byteLength":3408,
			"byteOffset":10224,
			"target":34962
		},
		{
			"buffer":0,
			"byteLength":1788,
			"byteOffset":13632,
			"target":34963
		}
	],
	"buffers":[
		{
			"byteLength":15420,
			"uri":"pinball_antenna.bin"
		}
	]
}
