{
  "accessors": [
    {
      "bufferView": 0,
      "componentType": 5126,
      "count": 402,
      "max": [
        1.0,
        1.0,
        1.0000001192092896
      ],
      "min": [
        -1.000000238418579,
        -1.0,
        -1.0000004768371582
      ],
      "type": "VEC3"
    },
    {
      "bufferView": 1,
      "componentType": 5126,
      "count": 402,
      "max": [
        1.0,
        1.0,
        1.0
      ],
      "min": [
        -1.0,
        -1.0,
        -1.0
      ],
      "type": "VEC3"
    },
    {
      "bufferView": 2,
      "componentType": 5126,
      "count": 402,
      "max": [
        0.6953738331794739,
        0.9988968968391418,
        0.23992733657360077,
        1.0
      ],
      "min": [
        -0.9416825771331787,
        -0.9988963603973389,
        -0.9231008291244507,
        1.0
      ],
      "type": "VEC4"
    },
    {
      "bufferView": 3,
      "componentType": 5126,
      "count": 402,
      "max": [
        0.49128973484039307,
        0.982565701007843
      ],
      "min": [
        0.008717238903045654,
        0.007878422737121582
      ],
      "type": "VEC2"
    },
    {
      "bufferView": 4,
      "componentType": 5125,
      "count": 2280,
      "max": [
        401
      ],
      "min": [
        0
      ],
      "type": "SCALAR"
    }
  ],
  "asset": {
    "version": "2.0"
  },
  "bufferViews": [
    {
      "buffer": 0,
      "byteLength": 4824,
      "target": 34962
    },
    {
      "buffer": 0,
      "byteLength": 4824,
      "byteOffset": 4824,
      "target": 34962
    },
    {
      "buffer": 0,
      "byteLength": 6432,
      "byteOffset": 9648,
      "target": 34962
    },
    {
      "buffer": 0,
      "byteLength": 3216,
      "byteOffset": 16080,
      "target": 34962
    },
    {
      "buffer": 0,
      "byteLength": 9120,
      "byteOffset": 19296,
      "target": 34963
    }
  ],
  "buffers": [
    {
      "byteLength": 28416,
      "uri": "music_ball.bin"
    }
  ],
  "images": [
    {
      "uri": "m_notsu_BaseColo.png"
    }
  ],
  "materials": [
    {
      "alphaCutoff": 0.5,
      "alphaMode": "BLEND",
      "emissiveFactor": [
        1.0,
        1.0,
        1.0
      ],
      "name": "m_notsu",
      "pbrMetallicRoughness": {
        "baseColorFactor": [
          1.0,
          1.0,
          1.0,
          0.3921568691730499
        ],
        "baseColorTexture": {
          "index": 0
        },
        "metallicFactor": 0.0
      }
    }
  ],
  "meshes": [
    {
      "primitives": [
        {
          "attributes": {
            "NORMAL": 1,
            "POSITION": 0,
            "TANGENT": 2,
            "TEXCOORD_0": 3
          },
          "indices": 4,
          "material": 0,
          "mode": 4
        }
      ]
    }
  ],
  "nodes": [
    {
      "children": [
        1
      ],
      "name": "group2",
      "rotation": [
        0.0,
        0.0,
        0.0,
        1.0
      ],
      "scale": [
        2.6350326538085938,
        2.6350326538085938,
        2.6350326538085938
      ],
      "translation": [
        8.790306651462743e-07,
        -7.5125627517700195,
        1.318545969297702e-06
      ]
    },
    {
      "mesh": 0,
      "name": "note_ball",
      "rotation": [
        0.0,
        0.0,
        0.0,
        1.0
      ],
      "scale": [
        4.50990629196167,
        4.50990629196167,
        4.50990629196167
      ],
      "translation": [
        0.0,
        2.851032257080078,
        0.0
      ]
    }
  ],
  "samplers": [
    {
      "wrapS": 10497,
      "wrapT": 10497
    }
  ],
  "scenes": [
    {
      "nodes": [
        0
      ]
    }
  ],
  "textures": [
    {
      "sampler": 0,
      "source": 0
    }
  ]
}
