{
  "accessors": [
    {
      "bufferView": 0,
      "componentType": 5126,
      "count": 923,
      "max": [
        0.987764298915863,
        1.1713838577270508,
        0.987764298915863
      ],
      "min": [
        -0.9877643585205078,
        -1.1713838577270508,
        -0.9877646565437317
      ],
      "type": "VEC3"
    },
    {
      "bufferView": 1,
      "componentType": 5126,
      "count": 923,
      "max": [
        1.0,
        1.0,
        1.0
      ],
      "min": [
        -1.0,
        -1.0,
        -1.0
      ],
      "type": "VEC3"
    },
    {
      "bufferView": 2,
      "componentType": 5126,
      "count": 923,
      "max": [
        1.0,
        0.9999993443489075,
        0.9963110685348511,
        1.0
      ],
      "min": [
        -0.864220142364502,
        -1.0,
        -0.6500293612480164,
        1.0
      ],
      "type": "VEC4"
    },
    {
      "bufferView": 3,
      "componentType": 5126,
      "count": 923,
      "max": [
        0.9959589242935181,
        0.9925894141197205
      ],
      "min": [
        0.01236581802368164,
        0.010350823402404785
      ],
      "type": "VEC2"
    },
    {
      "bufferView": 4,
      "componentType": 5125,
      "count": 4320,
      "max": [
        922
      ],
      "min": [
        0
      ],
      "type": "SCALAR"
    }
  ],
  "asset": {
    "version": "2.0"
  },
  "bufferViews": [
    {
      "buffer": 0,
      "byteLength": 11076,
      "target": 34962
    },
    {
      "buffer": 0,
      "byteLength": 11076,
      "byteOffset": 11076,
      "target": 34962
    },
    {
      "buffer": 0,
      "byteLength": 14768,
      "byteOffset": 22152,
      "target": 34962
    },
    {
      "buffer": 0,
      "byteLength": 7384,
      "byteOffset": 36920,
      "target": 34962
    },
    {
      "buffer": 0,
      "byteLength": 17280,
      "byteOffset": 44304,
      "target": 34963
    }
  ],
  "buffers": [
    {
      "byteLength": 61584,
      "uri": "record.bin"
    }
  ],
  "images": [
    {
      "uri": "..\\Game\\m_record_BaseColor.png"
    }
  ],
  "materials": [
    {
      "emissiveFactor": [
        1.0,
        1.0,
        1.0
      ],
      "name": "m_record",
      "pbrMetallicRoughness": {
        "baseColorTexture": {
          "index": 0
        },
        "metallicFactor": 0.0
      }
    }
  ],
  "meshes": [
    {
      "primitives": [
        {
          "attributes": {
            "NORMAL": 1,
            "POSITION": 0,
            "TANGENT": 2,
            "TEXCOORD_0": 3
          },
          "indices": 4,
          "material": 0,
          "mode": 4
        }
      ]
    }
  ],
  "nodes": [
    {
      "children": [
        1
      ],
      "name": "pCylinder4",
      "rotation": [
        0.7071067690849304,
        0.0,
        0.0,
        0.7071067690849304
      ],
      "scale": [
        46.29629898071289,
        2.7329843044281006,
        46.29629898071289
      ],
      "translation": [
        0.0,
        0.0,
        0.0
      ]
    },
    {
      "children": [
        2
      ],
      "name": "pCylinder5",
      "rotation": [
        0.0,
        0.0,
        0.0,
        1.0
      ],
      "scale": [
        1.0,
        1.0,
        1.0
      ],
      "translation": [
        0.0,
        0.0,
        0.0
      ]
    },
    {
      "mesh": 0,
      "name": "pCylinder5",
      "rotation": [
        0.0,
        0.0,
        0.0,
        1.0
      ],
      "scale": [
        1.0,
        0.40207308530807495,
        1.0
      ],
      "translation": [
        0.0,
        0.0,
        0.0
      ]
    }
  ],
  "samplers": [
    {
      "wrapS": 10497,
      "wrapT": 10497
    }
  ],
  "scenes": [
    {
      "nodes": [
        0
      ]
    }
  ],
  "textures": [
    {
      "sampler": 0,
      "source": 0
    }
  ]
}
