{
  "accessors": [
    {
      "bufferView": 0,
      "componentType": 5126,
      "count": 694,
      "max": [
        0.2530938684940338,
        0.08133573830127716,
        0.254349023103714
      ],
      "min": [
        -0.2530938684940338,
        -0.2095056027173996,
        -0.2543490529060364
      ],
      "type": "VEC3"
    },
    {
      "bufferView": 1,
      "componentType": 5126,
      "count": 694,
      "max": [
        0.8983914256095886,
        0.9997928738594055,
        0.8976633548736572
      ],
      "min": [
        -0.8983914256095886,
        0.43918269872665405,
        -0.8976633548736572
      ],
      "type": "VEC3"
    },
    {
      "bufferView": 2,
      "componentType": 5126,
      "count": 694,
      "max": [
        1.0,
        0.2804328501224518,
        1.0,
        1.0
      ],
      "min": [
        -1.0,
        -0.275375097990036,
        -1.0,
        -1.0
      ],
      "type": "VEC4"
    },
    {
      "bufferView": 3,
      "componentType": 5126,
      "count": 694,
      "max": [
        1.0000001192092896,
        1.0
      ],
      "min": [
        0.0,
        0.0
      ],
      "type": "VEC2"
    },
    {
      "bufferView": 4,
      "componentType": 5125,
      "count": 3240,
      "max": [
        693
      ],
      "min": [
        0
      ],
      "type": "SCALAR"
    },
    {
      "bufferView": 5,
      "componentType": 5126,
      "count": 39,
      "max": [
        -22.725875854492188,
        1.648406744003296,
        19.608741760253906
      ],
      "min": [
        -27.038150787353516,
        -1.5995378494262695,
        15.82911205291748
      ],
      "type": "VEC3"
    },
    {
      "bufferView": 6,
      "componentType": 5126,
      "count": 39,
      "max": [
        0.9189298748970032,
        0.9257730841636658,
        0.9628754258155823
      ],
      "min": [
        -0.9120582938194275,
        -0.9851588606834412,
        -0.9880470633506775
      ],
      "type": "VEC3"
    },
    {
      "bufferView": 7,
      "componentType": 5126,
      "count": 39,
      "max": [
        0.9894499778747559,
        0.47712811827659607,
        0.9151009917259216,
        1.0
      ],
      "min": [
        -0.895051121711731,
        -0.7418036460876465,
        -0.9715652465820313,
        -1.0
      ],
      "type": "VEC4"
    },
    {
      "bufferView": 8,
      "componentType": 5126,
      "count": 39,
      "max": [
        0.875,
        1.0
      ],
      "min": [
        0.125,
        0.0
      ],
      "type": "VEC2"
    },
    {
      "bufferView": 9,
      "componentType": 5125,
      "count": 144,
      "max": [
        38
      ],
      "min": [
        0
      ],
      "type": "SCALAR"
    },
    {
      "bufferView": 10,
      "componentType": 5126,
      "count": 39,
      "max": [
        28.756141662597656,
        -1.675021767616272,
        58.4804801940918
      ],
      "min": [
        22.54163932800293,
        -7.22346830368042,
        52.29915237426758
      ],
      "type": "VEC3"
    },
    {
      "bufferView": 11,
      "componentType": 5126,
      "count": 39,
      "max": [
        0.9051834940910339,
        0.9789912104606628,
        0.9759480357170105
      ],
      "min": [
        -0.9489916563034058,
        -0.9755275845527649,
        -0.9862273931503296
      ],
      "type": "VEC3"
    },
    {
      "bufferView": 12,
      "componentType": 5126,
      "count": 39,
      "max": [
        0.9549679160118103,
        0.649655282497406,
        0.9630633592605591,
        1.0
      ],
      "min": [
        -0.9919425249099731,
        -0.9789939522743225,
        -0.7370545268058777,
        -1.0
      ],
      "type": "VEC4"
    },
    {
      "bufferView": 13,
      "componentType": 5126,
      "count": 39,
      "max": [
        0.875,
        1.0
      ],
      "min": [
        0.125,
        0.0
      ],
      "type": "VEC2"
    },
    {
      "bufferView": 14,
      "componentType": 5125,
      "count": 144,
      "max": [
        38
      ],
      "min": [
        0
      ],
      "type": "SCALAR"
    },
    {
      "bufferView": 15,
      "componentType": 5126,
      "count": 39,
      "max": [
        37.473228454589844,
        -1.0984116792678833,
        57.714759826660156
      ],
      "min": [
        26.223142623901367,
        -9.502161026000977,
        47.37546157836914
      ],
      "type": "VEC3"
    },
    {
      "bufferView": 16,
      "componentType": 5126,
      "count": 39,
      "max": [
        0.9448947906494141,
        0.942058265209198,
        0.9978023767471313
      ],
      "min": [
        -0.9739284515380859,
        -0.9852070212364197,
        -0.9911431670188904
      ],
      "type": "VEC3"
    },
    {
      "bufferView": 17,
      "componentType": 5126,
      "count": 39,
      "max": [
        0.999090313911438,
        0.5214442610740662,
        0.973669707775116,
        1.0
      ],
      "min": [
        -0.7445283532142639,
        -0.707722544670105,
        -0.9955316185951233,
        -1.0
      ],
      "type": "VEC4"
    },
    {
      "bufferView": 18,
      "componentType": 5126,
      "count": 39,
      "max": [
        0.875,
        1.0
      ],
      "min": [
        0.125,
        0.0
      ],
      "type": "VEC2"
    },
    {
      "bufferView": 19,
      "componentType": 5125,
      "count": 144,
      "max": [
        38
      ],
      "min": [
        0
      ],
      "type": "SCALAR"
    }
  ],
  "asset": {
    "version": "2.0"
  },
  "bufferViews": [
    {
      "buffer": 0,
      "byteLength": 8328,
      "target": 34962
    },
    {
      "buffer": 0,
      "byteLength": 8328,
      "byteOffset": 8328,
      "target": 34962
    },
    {
      "buffer": 0,
      "byteLength": 11104,
      "byteOffset": 16656,
      "target": 34962
    },
    {
      "buffer": 0,
      "byteLength": 5552,
      "byteOffset": 27760,
      "target": 34962
    },
    {
      "buffer": 0,
      "byteLength": 12960,
      "byteOffset": 33312,
      "target": 34963
    },
    {
      "buffer": 0,
      "byteLength": 468,
      "byteOffset": 46272,
      "target": 34962
    },
    {
      "buffer": 0,
      "byteLength": 468,
      "byteOffset": 46740,
      "target": 34962
    },
    {
      "buffer": 0,
      "byteLength": 624,
      "byteOffset": 47208,
      "target": 34962
    },
    {
      "buffer": 0,
      "byteLength": 312,
      "byteOffset": 47832,
      "target": 34962
    },
    {
      "buffer": 0,
      "byteLength": 576,
      "byteOffset": 48144,
      "target": 34963
    },
    {
      "buffer": 0,
      "byteLength": 468,
      "byteOffset": 48720,
      "target": 34962
    },
    {
      "buffer": 0,
      "byteLength": 468,
      "byteOffset": 49188,
      "target": 34962
    },
    {
      "buffer": 0,
      "byteLength": 624,
      "byteOffset": 49656,
      "target": 34962
    },
    {
      "buffer": 0,
      "byteLength": 312,
      "byteOffset": 50280,
      "target": 34962
    },
    {
      "buffer": 0,
      "byteLength": 576,
      "byteOffset": 50592,
      "target": 34963
    },
    {
      "buffer": 0,
      "byteLength": 468,
      "byteOffset": 51168,
      "target": 34962
    },
    {
      "buffer": 0,
      "byteLength": 468,
      "byteOffset": 51636,
      "target": 34962
    },
    {
      "buffer": 0,
      "byteLength": 624,
      "byteOffset": 52104,
      "target": 34962
    },
    {
      "buffer": 0,
      "byteLength": 312,
      "byteOffset": 52728,
      "target": 34962
    },
    {
      "buffer": 0,
      "byteLength": 576,
      "byteOffset": 53040,
      "target": 34963
    }
  ],
  "buffers": [
    {
      "byteLength": 53616,
      "uri": "islandAndStone.bin"
    }
  ],
  "images": [
    {
      "uri": "m_island_baseColor.png"
    }
  ],
  "materials": [
    {
      "emissiveFactor": [
        1.0,
        1.0,
        1.0
      ],
      "name": "m_island",
      "pbrMetallicRoughness": {
        "baseColorFactor": [
          0.9382239580154419,
          0.9371887445449829,
          0.7643446326255798,
          1.0
        ],
        "baseColorTexture": {
          "index": 0
        },
        "metallicFactor": 0.0
      }
    },
    {
      "emissiveFactor": [
        1.0,
        1.0,
        1.0
      ],
      "name": "m_stone",
      "pbrMetallicRoughness": {
        "baseColorFactor": [
          0.44015443325042725,
          0.42316004633903503,
          0.42316004633903503,
          1.0
        ],
        "metallicFactor": 0.0
      }
    }
  ],
  "meshes": [
    {
      "primitives": [
        {
          "attributes": {
            "NORMAL": 1,
            "POSITION": 0,
            "TANGENT": 2,
            "TEXCOORD_0": 3
          },
          "indices": 4,
          "material": 0,
          "mode": 4
        }
      ]
    },
    {
      "primitives": [
        {
          "attributes": {
            "NORMAL": 6,
            "POSITION": 5,
            "TANGENT": 7,
            "TEXCOORD_0": 8
          },
          "indices": 9,
          "material": 1,
          "mode": 4
        }
      ]
    },
    {
      "primitives": [
        {
          "attributes": {
            "NORMAL": 11,
            "POSITION": 10,
            "TANGENT": 12,
            "TEXCOORD_0": 13
          },
          "indices": 14,
          "material": 1,
          "mode": 4
        }
      ]
    },
    {
      "primitives": [
        {
          "attributes": {
            "NORMAL": 16,
            "POSITION": 15,
            "TANGENT": 17,
            "TEXCOORD_0": 18
          },
          "indices": 19,
          "material": 1,
          "mode": 4
        }
      ]
    }
  ],
  "nodes": [
    {
      "mesh": 0,
      "name": "island.001",
      "rotation": [
        0.0,
        0.0,
        0.0,
        1.0
      ],
      "scale": [
        1.0,
        1.0,
        1.0
      ],
      "translation": [
        0.0,
        0.0,
        0.0
      ]
    },
    {
      "children": [
        0
      ],
      "name": "island",
      "rotation": [
        0.0,
        0.0,
        0.0,
        1.0
      ],
      "scale": [
        1238.891845703125,
        155.43724060058594,
        1238.891845703125
      ],
      "translation": [
        0.0,
        -12.827715873718262,
        0.0
      ]
    },
    {
      "mesh": 1,
      "name": "storne",
      "rotation": [
        0.0,
        0.0,
        0.0,
        1.0
      ],
      "scale": [
        1.0,
        1.0,
        1.0
      ],
      "translation": [
        0.0,
        0.0,
        0.0
      ]
    },
    {
      "mesh": 2,
      "name": "storne1",
      "rotation": [
        0.0,
        0.0,
        0.0,
        1.0
      ],
      "scale": [
        1.0,
        1.0,
        1.0
      ],
      "translation": [
        0.0,
        0.0,
        0.0
      ]
    },
    {
      "mesh": 3,
      "name": "storne2",
      "rotation": [
        0.0,
        0.0,
        0.0,
        1.0
      ],
      "scale": [
        1.0,
        1.0,
        1.0
      ],
      "translation": [
        0.0,
        0.0,
        0.0
      ]
    },
    {
      "children": [
        2,
        3,
        4
      ],
      "name": "stage",
      "rotation": [
        0.0,
        0.0,
        0.0,
        1.0
      ],
      "scale": [
        1.0,
        1.0,
        1.0
      ],
      "translation": [
        0.0,
        0.0,
        0.0
      ]
    }
  ],
  "samplers": [
    {
      "wrapS": 10497,
      "wrapT": 10497
    }
  ],
  "scenes": [
    {
      "nodes": [
        1,
        5
      ]
    }
  ],
  "textures": [
    {
      "sampler": 0,
      "source": 0
    }
  ]
}
