{
	"asset":{
		"generator":"Khronos glTF Blender I/O v4.2.57",
		"version":"2.0"
	},
	"scene":0,
	"scenes":[
		{
			"name":"Scene",
			"nodes":[
				0
			]
		}
	],
	"nodes":[
		{
			"mesh":0,
			"name":"Mesh",
			"rotation":[
				1,
				0,
				0,
				0
			],
			"scale":[
				-1,
				-1,
				-1
			]
		}
	],
	"materials":[
		{
			"emissiveFactor":[
				1,
				1,
				1
			],
			"name":"m_record.002",
			"pbrMetallicRoughness":{
				"baseColorTexture":{
					"index":0
				},
				"metallicFactor":0
			}
		}
	],
	"meshes":[
		{
			"name":"Mesh_0.002",
			"primitives":[
				{
					"attributes":{
						"POSITION":0,
						"NORMAL":1,
						"TEXCOORD_0":2
					},
					"indices":3,
					"material":0
				}
			]
		}
	],
	"textures":[
		{
			"sampler":0,
			"source":0
		}
	],
	"images":[
		{
			"mimeType":"image/png",
			"name":"Treasure_Battle_color",
			"uri":"Treasure_Battle_color.png"
		}
	],
	"accessors":[
		{
			"bufferView":0,
			"componentType":5126,
			"count":1448,
			"max":[
				45.72919464111328,
				45.729217529296875,
				1.2871874570846558
			],
			"min":[
				-45.72919845581055,
				-45.72920608520508,
				-1.2871874570846558
			],
			"type":"VEC3"
		},
		{
			"bufferView":1,
			"componentType":5126,
			"count":1448,
			"type":"VEC3"
		},
		{
			"bufferView":2,
			"componentType":5126,
			"count":1448,
			"type":"VEC2"
		},
		{
			"bufferView":3,
			"componentType":5123,
			"count":4800,
			"type":"SCALAR"
		}
	],
	"bufferViews":[
		{
			"buffer":0,
			"byteLength":17376,
			"byteOffset":0,
			"target":34962
		},
		{
			"buffer":0,
			"byteLength":17376,
			"byteOffset":17376,
			"target":34962
		},
		{
			"buffer":0,
			"byteLength":11584,
			"byteOffset":34752,
			"target":34962
		},
		{
			"buffer":0,
			"byteLength":9600,
			"byteOffset":46336,
			"target":34963
		}
	],
	"samplers":[
		{
			"magFilter":9729,
			"minFilter":9987
		}
	],
	"buffers":[
		{
			"byteLength":55936,
			"uri":"record.bin"
		}
	]
}
