{
	"asset":{
		"generator":"Khronos glTF Blender I/O v4.2.57",
		"version":"2.0"
	},
	"scene":0,
	"scenes":[
		{
			"name":"Scene",
			"nodes":[
				1
			]
		}
	],
	"nodes":[
		{
			"mesh":0,
			"name":"palm_tree1"
		},
		{
			"children":[
				0
			],
			"name":"stage"
		}
	],
	"materials":[
		{
			"alphaMode":"BLEND",
			"emissiveFactor":[
				1,
				1,
				1
			],
			"name":"m_palm_tree",
			"normalTexture":{
				"index":0
			},
			"pbrMetallicRoughness":{
				"baseColorTexture":{
					"index":1
				},
				"metallicFactor":0,
				"metallicRoughnessTexture":{
					"index":2
				}
			}
		}
	],
	"meshes":[
		{
			"name":"Mesh_0",
			"primitives":[
				{
					"attributes":{
						"POSITION":0,
						"NORMAL":1,
						"TEXCOORD_0":2
					},
					"indices":3,
					"material":0
				}
			]
		}
	],
	"textures":[
		{
			"sampler":0,
			"source":0
		},
		{
			"sampler":0,
			"source":1
		},
		{
			"sampler":0,
			"source":2
		}
	],
	"images":[
		{
			"mimeType":"image/png",
			"name":"m_palm_tree_Normal",
			"uri":"m_palm_tree_Normal.png"
		},
		{
			"mimeType":"image/png",
			"name":"m_palm_tree_BaseColor",
			"uri":"m_palm_tree_BaseColor.png"
		},
		{
			"mimeType":"image/png",
			"name":"m_palm_tree_Roughness",
			"uri":"m_palm_tree_Roughness.png"
		}
	],
	"accessors":[
		{
			"bufferView":0,
			"componentType":5126,
			"count":755,
			"max":[
				6.044209957122803,
				15.003683090209961,
				5.837753772735596
			],
			"min":[
				-6.584316730499268,
				7.776281356811523,
				-6.079761981964111
			],
			"type":"VEC3"
		},
		{
			"bufferView":1,
			"componentType":5126,
			"count":755,
			"type":"VEC3"
		},
		{
			"bufferView":2,
			"componentType":5126,
			"count":755,
			"type":"VEC2"
		},
		{
			"bufferView":3,
			"componentType":5123,
			"count":2646,
			"type":"SCALAR"
		}
	],
	"bufferViews":[
		{
			"buffer":0,
			"byteLength":9060,
			"byteOffset":0,
			"target":34962
		},
		{
			"buffer":0,
			"byteLength":9060,
			"byteOffset":9060,
			"target":34962
		},
		{
			"buffer":0,
			"byteLength":6040,
			"byteOffset":18120,
			"target":34962
		},
		{
			"buffer":0,
			"byteLength":5292,
			"byteOffset":24160,
			"target":34963
		}
	],
	"samplers":[
		{
			"magFilter":9729,
			"minFilter":9987
		}
	],
	"buffers":[
		{
			"byteLength":29452,
			"uri":"leaves.bin"
		}
	]
}
