{
  "accessors": [
    {
      "bufferView": 0,
      "componentType": 5126,
      "count": 524,
      "max": [
        5.385680198669434,
        11.926457405090332,
        5.413999557495117
      ],
      "min": [
        -5.385682106018066,
        -18.07054901123047,
        -5.442600727081299
      ],
      "type": "VEC3"
    },
    {
      "bufferView": 1,
      "componentType": 5126,
      "count": 524,
      "max": [
        0.9982514977455139,
        0.9945785403251648,
        0.9987707138061523
      ],
      "min": [
        -0.9991663098335266,
        -0.7955138087272644,
        -0.9987707138061523
      ],
      "type": "VEC3"
    },
    {
      "bufferView": 2,
      "componentType": 5126,
      "count": 524,
      "max": [
        0.9982355833053589,
        0.9573625922203064,
        0.9759451746940613,
        1.0
      ],
      "min": [
        -0.9948604702949524,
        -0.8596120476722717,
        -0.9813126921653748,
        1.0
      ],
      "type": "VEC4"
    },
    {
      "bufferView": 3,
      "componentType": 5126,
      "count": 524,
      "max": [
        0.9906781911849976,
        0.7475844621658325
      ],
      "min": [
        0.4892677068710327,
        0.2359391450881958
      ],
      "type": "VEC2"
    },
    {
      "bufferView": 4,
      "componentType": 5125,
      "count": 2568,
      "max": [
        523
      ],
      "min": [
        0
      ],
      "type": "SCALAR"
    }
  ],
  "asset": {
    "version": "2.0"
  },
  "bufferViews": [
    {
      "buffer": 0,
      "byteLength": 6288,
      "target": 34962
    },
    {
      "buffer": 0,
      "byteLength": 6288,
      "byteOffset": 6288,
      "target": 34962
    },
    {
      "buffer": 0,
      "byteLength": 8384,
      "byteOffset": 12576,
      "target": 34962
    },
    {
      "buffer": 0,
      "byteLength": 4192,
      "byteOffset": 20960,
      "target": 34962
    },
    {
      "buffer": 0,
      "byteLength": 10272,
      "byteOffset": 25152,
      "target": 34963
    }
  ],
  "buffers": [
    {
      "byteLength": 35424,
      "uri": "shell_roll.bin"
    }
  ],
  "images": [
    {
      "uri": "result_MDL_BaseColor.png"
    },
    {
      "uri": "result_MDL_Roughness.png"
    }
  ],
  "materials": [
    {
      "emissiveFactor": [
        1.0,
        1.0,
        1.0
      ],
      "name": "result_M",
      "pbrMetallicRoughness": {
        "baseColorTexture": {
          "index": 0
        },
        "metallicFactor": 0.0,
        "metallicRoughnessTexture": {
          "index": 1
        }
      }
    }
  ],
  "meshes": [
    {
      "primitives": [
        {
          "attributes": {
            "NORMAL": 1,
            "POSITION": 0,
            "TANGENT": 2,
            "TEXCOORD_0": 3
          },
          "indices": 4,
          "material": 0,
          "mode": 4
        }
      ]
    }
  ],
  "nodes": [
    {
      "mesh": 0,
      "name": "shell_roll",
      "rotation": [
        0.0,
        0.0,
        0.0,
        1.0
      ],
      "scale": [
        1.0,
        1.0,
        1.0
      ],
      "translation": [
        0.0,
        0.0,
        0.0
      ]
    }
  ],
  "samplers": [
    {
      "wrapS": 10497,
      "wrapT": 10497
    }
  ],
  "scenes": [
    {
      "nodes": [
        0
      ]
    }
  ],
  "textures": [
    {
      "sampler": 0,
      "source": 0
    },
    {
      "sampler": 0,
      "source": 1
    }
  ]
}
