{
  "accessors": [
    {
      "bufferView": 0,
      "componentType": 5126,
      "count": 241,
      "max": [
        15.5564546585083,
        0.9021816253662109,
        11.639201164245605
      ],
      "min": [
        -8.305526733398438,
        -1.410085678100586,
        -11.639201164245605
      ],
      "type": "VEC3"
    },
    {
      "bufferView": 1,
      "componentType": 5126,
      "count": 241,
      "max": [
        0.9396626353263855,
        1.0,
        0.9981445074081421
      ],
      "min": [
        -0.9839863777160645,
        0.034862492233514786,
        -0.9984984993934631
      ],
      "type": "VEC3"
    },
    {
      "bufferView": 2,
      "componentType": 5126,
      "count": 241,
      "max": [
        0.5357333421707153,
        0.9877766966819763,
        0.9999936819076538,
        1.0
      ],
      "min": [
        -0.5617086887359619,
        -0.9849367141723633,
        0.04944213852286339,
        1.0
      ],
      "type": "VEC4"
    },
    {
      "bufferView": 3,
      "componentType": 5126,
      "count": 241,
      "max": [
        0.4854637384414673,
        0.4867686629295349
      ],
      "min": [
        0.01692887395620346,
        0.014721453189849854
      ],
      "type": "VEC2"
    },
    {
      "bufferView": 4,
      "componentType": 5125,
      "count": 1017,
      "max": [
        240
      ],
      "min": [
        0
      ],
      "type": "SCALAR"
    }
  ],
  "asset": {
    "version": "2.0"
  },
  "bufferViews": [
    {
      "buffer": 0,
      "byteLength": 2892,
      "target": 34962
    },
    {
      "buffer": 0,
      "byteLength": 2892,
      "byteOffset": 2892,
      "target": 34962
    },
    {
      "buffer": 0,
      "byteLength": 3856,
      "byteOffset": 5784,
      "target": 34962
    },
    {
      "buffer": 0,
      "byteLength": 1928,
      "byteOffset": 9640,
      "target": 34962
    },
    {
      "buffer": 0,
      "byteLength": 4068,
      "byteOffset": 11568,
      "target": 34963
    }
  ],
  "buffers": [
    {
      "byteLength": 15636,
      "uri": "shell.bin"
    }
  ],
  "images": [
    {
      "uri": "result_MDL_BaseColor.png"
    },
    {
      "uri": "result_MDL_Roughness.png"
    },
    {
      "uri": "result_MDL_Normal.png"
    }
  ],
  "materials": [
    {
      "emissiveFactor": [
        1.0,
        1.0,
        1.0
      ],
      "name": "result_M",
      "normalTexture": {
        "index": 2
      },
      "pbrMetallicRoughness": {
        "baseColorTexture": {
          "index": 0
        },
        "metallicFactor": 0.0,
        "metallicRoughnessTexture": {
          "index": 1
        }
      }
    }
  ],
  "meshes": [
    {
      "primitives": [
        {
          "attributes": {
            "NORMAL": 1,
            "POSITION": 0,
            "TANGENT": 2,
            "TEXCOORD_0": 3
          },
          "indices": 4,
          "material": 0,
          "mode": 4
        }
      ]
    }
  ],
  "nodes": [
    {
      "mesh": 0,
      "name": "shell",
      "rotation": [
        0.0,
        0.0,
        0.0,
        1.0
      ],
      "scale": [
        1.0,
        1.0,
        1.0
      ],
      "translation": [
        0.0,
        0.0,
        0.0
      ]
    }
  ],
  "samplers": [
    {
      "wrapS": 10497,
      "wrapT": 10497
    }
  ],
  "scenes": [
    {
      "nodes": [
        0
      ]
    }
  ],
  "textures": [
    {
      "sampler": 0,
      "source": 0
    },
    {
      "sampler": 0,
      "source": 1
    },
    {
      "sampler": 0,
      "source": 2
    }
  ]
}
