{
  "accessors": [
    {
      "bufferView": 0,
      "componentType": 5126,
      "count": 210,
      "max": [
        18.791746139526367,
        3.657406806945801,
        21.766923904418945
      ],
      "min": [
        -22.611406326293945,
        -2.670703172683716,
        -21.766923904418945
      ],
      "type": "VEC3"
    },
    {
      "bufferView": 1,
      "componentType": 5126,
      "count": 210,
      "max": [
        0.9996274709701538,
        0.9999625086784363,
        0.9730743765830994
      ],
      "min": [
        -0.9987931847572327,
        -0.7248111367225647,
        -0.9885859489440918
      ],
      "type": "VEC3"
    },
    {
      "bufferView": 2,
      "componentType": 5126,
      "count": 210,
      "max": [
        0.9504712224006653,
        0.9982660412788391,
        0.970288097858429,
        1.0
      ],
      "min": [
        -0.9685056805610657,
        -0.9942074418067932,
        -0.7516370415687561,
        1.0
      ],
      "type": "VEC4"
    },
    {
      "bufferView": 3,
      "componentType": 5126,
      "count": 210,
      "max": [
        0.5084856748580933,
        0.9915714859962463
      ],
      "min": [
        0.007533356547355652,
        0.5059030055999756
      ],
      "type": "VEC2"
    },
    {
      "bufferView": 4,
      "componentType": 5125,
      "count": 1050,
      "max": [
        209
      ],
      "min": [
        0
      ],
      "type": "SCALAR"
    }
  ],
  "asset": {
    "version": "2.0"
  },
  "bufferViews": [
    {
      "buffer": 0,
      "byteLength": 2520,
      "target": 34962
    },
    {
      "buffer": 0,
      "byteLength": 2520,
      "byteOffset": 2520,
      "target": 34962
    },
    {
      "buffer": 0,
      "byteLength": 3360,
      "byteOffset": 5040,
      "target": 34962
    },
    {
      "buffer": 0,
      "byteLength": 1680,
      "byteOffset": 8400,
      "target": 34962
    },
    {
      "buffer": 0,
      "byteLength": 4200,
      "byteOffset": 10080,
      "target": 34963
    }
  ],
  "buffers": [
    {
      "byteLength": 14280,
      "uri": "ster_fish.bin"
    }
  ],
  "images": [
    {
      "uri": "result_MDL_BaseColor.png"
    },
    {
      "uri": "result_MDL_Roughness.png"
    },
    {
      "uri": "result_MDL_Normal.png"
    }
  ],
  "materials": [
    {
      "emissiveFactor": [
        1.0,
        1.0,
        1.0
      ],
      "name": "result_M",
      "normalTexture": {
        "index": 2
      },
      "pbrMetallicRoughness": {
        "baseColorTexture": {
          "index": 0
        },
        "metallicFactor": 0.0,
        "metallicRoughnessTexture": {
          "index": 1
        }
      }
    }
  ],
  "meshes": [
    {
      "primitives": [
        {
          "attributes": {
            "NORMAL": 1,
            "POSITION": 0,
            "TANGENT": 2,
            "TEXCOORD_0": 3
          },
          "indices": 4,
          "material": 0,
          "mode": 4
        }
      ]
    }
  ],
  "nodes": [
    {
      "mesh": 0,
      "name": "ster_fish",
      "rotation": [
        0.0,
        0.0,
        0.0,
        1.0
      ],
      "scale": [
        1.0,
        1.0,
        1.0
      ],
      "translation": [
        0.0,
        0.0,
        0.0
      ]
    }
  ],
  "samplers": [
    {
      "wrapS": 10497,
      "wrapT": 10497
    }
  ],
  "scenes": [
    {
      "nodes": [
        0
      ]
    }
  ],
  "textures": [
    {
      "sampler": 0,
      "source": 0
    },
    {
      "sampler": 0,
      "source": 1
    },
    {
      "sampler": 0,
      "source": 2
    }
  ]
}
